%TF.GenerationSoftware,KiCad,Pcbnew,(5.99.0-8944-g488cfb9ec7)*%
%TF.CreationDate,2021-07-25T21:07:32+02:00*%
%TF.ProjectId,hotswap_tb,686f7473-7761-4705-9f74-622e6b696361,rev?*%
%TF.SameCoordinates,Original*%
%TF.FileFunction,Copper,L1,Top*%
%TF.FilePolarity,Positive*%
%FSLAX46Y46*%
G04 Gerber Fmt 4.6, Leading zero omitted, Abs format (unit mm)*
G04 Created by KiCad (PCBNEW (5.99.0-8944-g488cfb9ec7)) date 2021-07-25 21:07:32*
%MOMM*%
%LPD*%
G01*
G04 APERTURE LIST*
G04 Aperture macros list*
%AMRoundRect*
0 Rectangle with rounded corners*
0 $1 Rounding radius*
0 $2 $3 $4 $5 $6 $7 $8 $9 X,Y pos of 4 corners*
0 Add a 4 corners polygon primitive as box body*
4,1,4,$2,$3,$4,$5,$6,$7,$8,$9,$2,$3,0*
0 Add four circle primitives for the rounded corners*
1,1,$1+$1,$2,$3*
1,1,$1+$1,$4,$5*
1,1,$1+$1,$6,$7*
1,1,$1+$1,$8,$9*
0 Add four rect primitives between the rounded corners*
20,1,$1+$1,$2,$3,$4,$5,0*
20,1,$1+$1,$4,$5,$6,$7,0*
20,1,$1+$1,$6,$7,$8,$9,0*
20,1,$1+$1,$8,$9,$2,$3,0*%
G04 Aperture macros list end*
%TA.AperFunction,Profile*%
%ADD10C,0.500000*%
%TD*%
%TA.AperFunction,SMDPad,CuDef*%
%ADD11C,2.500000*%
%TD*%
%TA.AperFunction,SMDPad,CuDef*%
%ADD12RoundRect,0.100000X-0.637500X-0.100000X0.637500X-0.100000X0.637500X0.100000X-0.637500X0.100000X0*%
%TD*%
%TA.AperFunction,SMDPad,CuDef*%
%ADD13RoundRect,0.250000X-0.350000X-0.450000X0.350000X-0.450000X0.350000X0.450000X-0.350000X0.450000X0*%
%TD*%
%TA.AperFunction,SMDPad,CuDef*%
%ADD14RoundRect,0.250000X0.350000X0.450000X-0.350000X0.450000X-0.350000X-0.450000X0.350000X-0.450000X0*%
%TD*%
%TA.AperFunction,SMDPad,CuDef*%
%ADD15RoundRect,0.250000X-0.325000X-0.450000X0.325000X-0.450000X0.325000X0.450000X-0.325000X0.450000X0*%
%TD*%
%TA.AperFunction,SMDPad,CuDef*%
%ADD16RoundRect,0.250000X-0.450000X0.350000X-0.450000X-0.350000X0.450000X-0.350000X0.450000X0.350000X0*%
%TD*%
%TA.AperFunction,SMDPad,CuDef*%
%ADD17RoundRect,0.250000X0.450000X-0.325000X0.450000X0.325000X-0.450000X0.325000X-0.450000X-0.325000X0*%
%TD*%
%TA.AperFunction,SMDPad,CuDef*%
%ADD18RoundRect,0.250000X-0.475000X0.337500X-0.475000X-0.337500X0.475000X-0.337500X0.475000X0.337500X0*%
%TD*%
%TA.AperFunction,SMDPad,CuDef*%
%ADD19RoundRect,0.250000X-0.550000X1.500000X-0.550000X-1.500000X0.550000X-1.500000X0.550000X1.500000X0*%
%TD*%
%TA.AperFunction,SMDPad,CuDef*%
%ADD20R,1.200000X2.200000*%
%TD*%
%TA.AperFunction,SMDPad,CuDef*%
%ADD21R,5.800000X6.400000*%
%TD*%
%TA.AperFunction,SMDPad,CuDef*%
%ADD22RoundRect,0.250000X0.475000X-0.337500X0.475000X0.337500X-0.475000X0.337500X-0.475000X-0.337500X0*%
%TD*%
%TA.AperFunction,SMDPad,CuDef*%
%ADD23RoundRect,0.250000X0.450000X-0.350000X0.450000X0.350000X-0.450000X0.350000X-0.450000X-0.350000X0*%
%TD*%
%TA.AperFunction,Conductor*%
%ADD24C,1.175000*%
%TD*%
%TA.AperFunction,Conductor*%
%ADD25C,0.800000*%
%TD*%
%TA.AperFunction,Conductor*%
%ADD26C,0.400000*%
%TD*%
G04 APERTURE END LIST*
D10*
X140716000Y-47244000D02*
X176784000Y-47244000D01*
X176784000Y-47244000D02*
X176784000Y-72898000D01*
X176784000Y-72898000D02*
X140716000Y-72898000D01*
X140716000Y-72898000D02*
X140716000Y-47244000D01*
D11*
%TO.P,TP5,1,1*%
%TO.N,Net-(TP5-Pad1)*%
X152654000Y-68326000D03*
%TD*%
D12*
%TO.P,U2,1,UVEN*%
%TO.N,Net-(R1-Pad2)*%
X149791500Y-59772000D03*
%TO.P,U2,2,VREF*%
%TO.N,/VREF*%
X149791500Y-60422000D03*
%TO.P,U2,3,PROG*%
%TO.N,/PROG*%
X149791500Y-61072000D03*
%TO.P,U2,4,TIMER*%
%TO.N,/TIMER*%
X149791500Y-61722000D03*
%TO.P,U2,5,OV*%
%TO.N,/EN*%
X149791500Y-62372000D03*
%TO.P,U2,6,IMON*%
%TO.N,Net-(TP5-Pad1)*%
X149791500Y-63022000D03*
%TO.P,U2,7,GND*%
%TO.N,GND*%
X149791500Y-63672000D03*
%TO.P,U2,8,~PG*%
%TO.N,/PG*%
X155516500Y-63672000D03*
%TO.P,U2,9,~FLT*%
%TO.N,Net-(R10-Pad2)*%
X155516500Y-63022000D03*
%TO.P,U2,10,NC*%
%TO.N,N/C*%
X155516500Y-62372000D03*
%TO.P,U2,11,OUT*%
%TO.N,/OUT*%
X155516500Y-61722000D03*
%TO.P,U2,12,GATE*%
%TO.N,/GATE*%
X155516500Y-61072000D03*
%TO.P,U2,13,SENSE*%
%TO.N,/SENS*%
X155516500Y-60422000D03*
%TO.P,U2,14,VCC*%
%TO.N,/HS_in*%
X155516500Y-59772000D03*
%TD*%
D11*
%TO.P,TP6,1,1*%
%TO.N,/OUT*%
X171704000Y-51308000D03*
%TD*%
%TO.P,TP4,1,1*%
%TO.N,/PG*%
X161798000Y-68326000D03*
%TD*%
D13*
%TO.P,R2,1*%
%TO.N,Net-(R1-Pad2)*%
X148606000Y-56261000D03*
%TO.P,R2,2*%
%TO.N,/EN*%
X150606000Y-56261000D03*
%TD*%
D14*
%TO.P,R3,1*%
%TO.N,/EN*%
X146304000Y-67183000D03*
%TO.P,R3,2*%
%TO.N,GND*%
X144304000Y-67183000D03*
%TD*%
D15*
%TO.P,D2,1,K*%
%TO.N,/OUT*%
X166615000Y-64262000D03*
%TO.P,D2,2,A*%
%TO.N,GND*%
X168665000Y-64262000D03*
%TD*%
D16*
%TO.P,R1,1*%
%TO.N,/HS_in*%
X146177000Y-54372000D03*
%TO.P,R1,2*%
%TO.N,Net-(R1-Pad2)*%
X146177000Y-56372000D03*
%TD*%
D17*
%TO.P,D1,1,K*%
%TO.N,/HS_in*%
X151638000Y-53857000D03*
%TO.P,D1,2,A*%
%TO.N,GND*%
X151638000Y-51807000D03*
%TD*%
D18*
%TO.P,C2,1*%
%TO.N,/TIMER*%
X146812000Y-62970500D03*
%TO.P,C2,2*%
%TO.N,GND*%
X146812000Y-65045500D03*
%TD*%
D11*
%TO.P,TP2,1,1*%
%TO.N,Net-(R10-Pad1)*%
X169926000Y-68326000D03*
%TD*%
%TO.P,TP1,1,1*%
%TO.N,/HS_in*%
X156845000Y-51435000D03*
%TD*%
D14*
%TO.P,R10,1*%
%TO.N,Net-(R10-Pad1)*%
X161020000Y-64262000D03*
%TO.P,R10,2*%
%TO.N,Net-(R10-Pad2)*%
X159020000Y-64262000D03*
%TD*%
D11*
%TO.P,TP3,1,1*%
%TO.N,Net-(R10-Pad2)*%
X157226000Y-68326000D03*
%TD*%
D13*
%TO.P,R6,1*%
%TO.N,/PROG*%
X144812000Y-59944000D03*
%TO.P,R6,2*%
%TO.N,/VREF*%
X146812000Y-59944000D03*
%TD*%
D19*
%TO.P,C3,1*%
%TO.N,/OUT*%
X171704000Y-56128000D03*
%TO.P,C3,2*%
%TO.N,GND*%
X171704000Y-61728000D03*
%TD*%
D16*
%TO.P,R9,1*%
%TO.N,Net-(R10-Pad1)*%
X165862000Y-66818000D03*
%TO.P,R9,2*%
%TO.N,/PG*%
X165862000Y-68818000D03*
%TD*%
D20*
%TO.P,Q1,1,G*%
%TO.N,Net-(Q1-Pad1)*%
X161804000Y-59572000D03*
D21*
%TO.P,Q1,2,D*%
%TO.N,/SENS*%
X164084000Y-53272000D03*
D20*
%TO.P,Q1,3,S*%
%TO.N,/OUT*%
X166364000Y-59572000D03*
%TD*%
D16*
%TO.P,R5,1*%
%TO.N,/PROG*%
X144272000Y-63008000D03*
%TO.P,R5,2*%
%TO.N,GND*%
X144272000Y-65008000D03*
%TD*%
D22*
%TO.P,C1,1*%
%TO.N,/HS_in*%
X153924000Y-53869500D03*
%TO.P,C1,2*%
%TO.N,GND*%
X153924000Y-51794500D03*
%TD*%
D16*
%TO.P,R4,1*%
%TO.N,/HS_in*%
X156845000Y-55388000D03*
%TO.P,R4,2*%
%TO.N,/SENS*%
X156845000Y-57388000D03*
%TD*%
%TO.P,R8,1*%
%TO.N,/OUT*%
X163830000Y-62262000D03*
%TO.P,R8,2*%
%TO.N,Net-(R10-Pad1)*%
X163830000Y-64262000D03*
%TD*%
D23*
%TO.P,R7,1*%
%TO.N,/GATE*%
X159004000Y-61087000D03*
%TO.P,R7,2*%
%TO.N,Net-(Q1-Pad1)*%
X159004000Y-59087000D03*
%TD*%
D24*
%TO.N,GND*%
X144309500Y-65045500D02*
X144272000Y-65008000D01*
X146812000Y-65045500D02*
X144309500Y-65045500D01*
D25*
%TO.N,/HS_in*%
X156845000Y-55388000D02*
X156829000Y-55388000D01*
D24*
X156845000Y-51435000D02*
X156845000Y-55388000D01*
D26*
%TO.N,/TIMER*%
X148060500Y-61722000D02*
X146812000Y-62970500D01*
X149791500Y-61722000D02*
X148060500Y-61722000D01*
%TO.N,/OUT*%
X157766000Y-62262000D02*
X163830000Y-62262000D01*
X155516500Y-61722000D02*
X157226000Y-61722000D01*
X157226000Y-61722000D02*
X157766000Y-62262000D01*
%TO.N,/SENS*%
X157226000Y-57769000D02*
X156845000Y-57388000D01*
X157226000Y-59944000D02*
X157226000Y-57769000D01*
X155516500Y-60422000D02*
X156748000Y-60422000D01*
X156748000Y-60422000D02*
X157226000Y-59944000D01*
%TO.N,/EN*%
X148996864Y-62372000D02*
X148336000Y-63032864D01*
X146558000Y-67183000D02*
X146304000Y-67183000D01*
X149791500Y-62372000D02*
X148996864Y-62372000D01*
X150929020Y-62029116D02*
X150929020Y-56711020D01*
X149791500Y-62372000D02*
X150586136Y-62372000D01*
X150586136Y-62372000D02*
X150929020Y-62029116D01*
X150929020Y-56711020D02*
X150479000Y-56261000D01*
X148336000Y-63032864D02*
X148336000Y-65405000D01*
X148336000Y-65405000D02*
X146558000Y-67183000D01*
%TO.N,/PROG*%
X145940000Y-61072000D02*
X144812000Y-59944000D01*
X149791500Y-61072000D02*
X145940000Y-61072000D01*
%TO.N,/VREF*%
X147290000Y-60422000D02*
X146812000Y-59944000D01*
X149791500Y-60422000D02*
X147290000Y-60422000D01*
%TO.N,/GATE*%
X158989000Y-61072000D02*
X159004000Y-61087000D01*
X155516500Y-61072000D02*
X158989000Y-61072000D01*
D24*
%TO.N,Net-(R10-Pad1)*%
X168418000Y-66818000D02*
X165862000Y-66818000D01*
X165862000Y-66818000D02*
X165862000Y-66294000D01*
X165862000Y-66294000D02*
X163830000Y-64262000D01*
X169926000Y-68326000D02*
X168418000Y-66818000D01*
X161020000Y-64262000D02*
X163830000Y-64262000D01*
%TO.N,/PG*%
X162290000Y-68818000D02*
X161798000Y-68326000D01*
D26*
X161798000Y-68326000D02*
X159512000Y-66040000D01*
D24*
X165862000Y-68818000D02*
X162290000Y-68818000D01*
D26*
X159512000Y-66040000D02*
X157884500Y-66040000D01*
X157884500Y-66040000D02*
X155516500Y-63672000D01*
%TO.N,Net-(R10-Pad2)*%
X154178000Y-65278000D02*
X154178000Y-64262000D01*
X154178000Y-63565864D02*
X154721864Y-63022000D01*
X157226000Y-68326000D02*
X154178000Y-65278000D01*
X157780000Y-63022000D02*
X159020000Y-64262000D01*
X154178000Y-64262000D02*
X154178000Y-63565864D01*
X154721864Y-63022000D02*
X155516500Y-63022000D01*
X155516500Y-63022000D02*
X157780000Y-63022000D01*
%TO.N,Net-(TP5-Pad1)*%
X152654000Y-63754000D02*
X152654000Y-68326000D01*
X149791500Y-63022000D02*
X151922000Y-63022000D01*
X151922000Y-63022000D02*
X152654000Y-63754000D01*
%TD*%
%TA.AperFunction,Conductor*%
%TO.N,Net-(R1-Pad2)*%
G36*
X149499252Y-55518707D02*
G01*
X149568493Y-55573926D01*
X149606920Y-55653718D01*
X149608384Y-55735288D01*
X149607259Y-55741184D01*
X149607258Y-55741190D01*
X149605500Y-55750408D01*
X149605500Y-56750579D01*
X149621094Y-56874016D01*
X149681581Y-57026790D01*
X149778161Y-57159721D01*
X149904766Y-57264457D01*
X149916090Y-57269786D01*
X149916092Y-57269787D01*
X150042110Y-57329087D01*
X150053439Y-57334418D01*
X150065734Y-57336763D01*
X150065739Y-57336765D01*
X150137595Y-57350472D01*
X150166809Y-57356044D01*
X150247929Y-57391581D01*
X150305597Y-57458795D01*
X150328520Y-57551519D01*
X150328520Y-59622500D01*
X150308813Y-59708843D01*
X150253594Y-59778084D01*
X150173802Y-59816511D01*
X150129520Y-59821500D01*
X148011500Y-59821500D01*
X147925157Y-59801793D01*
X147855916Y-59746574D01*
X147817489Y-59666782D01*
X147812500Y-59622500D01*
X147812500Y-59454421D01*
X147796906Y-59330984D01*
X147736419Y-59178210D01*
X147718897Y-59154092D01*
X147647201Y-59055412D01*
X147639839Y-59045279D01*
X147513234Y-58940543D01*
X147501910Y-58935214D01*
X147501908Y-58935213D01*
X147375890Y-58875913D01*
X147375889Y-58875913D01*
X147364561Y-58870582D01*
X147296114Y-58857525D01*
X147231814Y-58845259D01*
X147231812Y-58845259D01*
X147222592Y-58843500D01*
X146422421Y-58843500D01*
X146298984Y-58859094D01*
X146146210Y-58919581D01*
X146013279Y-59016161D01*
X146005299Y-59025808D01*
X146005293Y-59025813D01*
X145966721Y-59072439D01*
X145896500Y-59126406D01*
X145809817Y-59144560D01*
X145723842Y-59123306D01*
X145652397Y-59062563D01*
X145639839Y-59045279D01*
X145513234Y-58940543D01*
X145501910Y-58935214D01*
X145501908Y-58935213D01*
X145375890Y-58875913D01*
X145375889Y-58875913D01*
X145364561Y-58870582D01*
X145296114Y-58857525D01*
X145231814Y-58845259D01*
X145231812Y-58845259D01*
X145222592Y-58843500D01*
X144422421Y-58843500D01*
X144298984Y-58859094D01*
X144146210Y-58919581D01*
X144013279Y-59016161D01*
X143995793Y-59037298D01*
X143924642Y-59123306D01*
X143908543Y-59142766D01*
X143903214Y-59154090D01*
X143903213Y-59154092D01*
X143843913Y-59280110D01*
X143838582Y-59291439D01*
X143811500Y-59433408D01*
X143811500Y-59872000D01*
X143791793Y-59958343D01*
X143736574Y-60027584D01*
X143656782Y-60066011D01*
X143612500Y-60071000D01*
X143328000Y-60071000D01*
X143241657Y-60051293D01*
X143172416Y-59996074D01*
X143133989Y-59916282D01*
X143129000Y-59872000D01*
X143129000Y-55698000D01*
X143148707Y-55611657D01*
X143203926Y-55542416D01*
X143283718Y-55503989D01*
X143328000Y-55499000D01*
X149412909Y-55499000D01*
X149499252Y-55518707D01*
G37*
%TD.AperFunction*%
%TD*%
%TA.AperFunction,Conductor*%
%TO.N,/SENS*%
G36*
X167381343Y-49549707D02*
G01*
X167450584Y-49604926D01*
X167489011Y-49684718D01*
X167494000Y-49729000D01*
X167494000Y-57331342D01*
X167474293Y-57417685D01*
X167419074Y-57486926D01*
X167334917Y-57526297D01*
X167289560Y-57535584D01*
X167289554Y-57535585D01*
X167286821Y-57536145D01*
X167284124Y-57536857D01*
X167253712Y-57544884D01*
X167253710Y-57544885D01*
X167243450Y-57547593D01*
X167131943Y-57604410D01*
X167060294Y-57656467D01*
X167018981Y-57690959D01*
X166943170Y-57790530D01*
X166939470Y-57797405D01*
X166939468Y-57797409D01*
X166916550Y-57840000D01*
X166901204Y-57868519D01*
X166878950Y-57917513D01*
X166876552Y-57916424D01*
X166840039Y-57977529D01*
X166766124Y-58026314D01*
X166696210Y-58039000D01*
X166028938Y-58039000D01*
X165942595Y-58019293D01*
X165873354Y-57964074D01*
X165843654Y-57907374D01*
X165842201Y-57907938D01*
X165839369Y-57900641D01*
X165837122Y-57893160D01*
X165832847Y-57884282D01*
X165800143Y-57816375D01*
X165798695Y-57813368D01*
X165772142Y-57766571D01*
X165687709Y-57674196D01*
X165668172Y-57658615D01*
X165662405Y-57654017D01*
X165618468Y-57618977D01*
X165574228Y-57588327D01*
X165563855Y-57584166D01*
X165563851Y-57584164D01*
X165465332Y-57544646D01*
X165465326Y-57544644D01*
X165458076Y-57541736D01*
X165450461Y-57539998D01*
X165450458Y-57539997D01*
X165420121Y-57533073D01*
X165371733Y-57522029D01*
X165366198Y-57521405D01*
X165366190Y-57521404D01*
X165288268Y-57512624D01*
X165288260Y-57512624D01*
X165282726Y-57512000D01*
X162885892Y-57512000D01*
X162880902Y-57512506D01*
X162880894Y-57512506D01*
X162810656Y-57519623D01*
X162810649Y-57519624D01*
X162805656Y-57520130D01*
X162800739Y-57521137D01*
X162800731Y-57521138D01*
X162755453Y-57530409D01*
X162727444Y-57536144D01*
X162724743Y-57536857D01*
X162694338Y-57544882D01*
X162694335Y-57544883D01*
X162684072Y-57547592D01*
X162572565Y-57604408D01*
X162566244Y-57609001D01*
X162566240Y-57609003D01*
X162503622Y-57654498D01*
X162500915Y-57656465D01*
X162459605Y-57690953D01*
X162452837Y-57699842D01*
X162452835Y-57699844D01*
X162394625Y-57776296D01*
X162383792Y-57790524D01*
X162341825Y-57868512D01*
X162340441Y-57871559D01*
X162340437Y-57871567D01*
X162323916Y-57907938D01*
X162319568Y-57917511D01*
X162317170Y-57916422D01*
X162280665Y-57977520D01*
X162206753Y-58026310D01*
X162136828Y-58039000D01*
X156282000Y-58039000D01*
X156195657Y-58019293D01*
X156126416Y-57964074D01*
X156087989Y-57884282D01*
X156083000Y-57840000D01*
X156083000Y-56581091D01*
X156102707Y-56494748D01*
X156157926Y-56425507D01*
X156237718Y-56387080D01*
X156319288Y-56385616D01*
X156325184Y-56386741D01*
X156325190Y-56386742D01*
X156334408Y-56388500D01*
X157334579Y-56388500D01*
X157458016Y-56372906D01*
X157610790Y-56312419D01*
X157743721Y-56215839D01*
X157848457Y-56089234D01*
X157918418Y-55940561D01*
X157945500Y-55798592D01*
X157945500Y-54998421D01*
X157929906Y-54874984D01*
X157869419Y-54722210D01*
X157862057Y-54712078D01*
X157857615Y-54703997D01*
X157833289Y-54618840D01*
X157833000Y-54608127D01*
X157833000Y-52853323D01*
X157852707Y-52766980D01*
X157902760Y-52702002D01*
X158009673Y-52610690D01*
X158015615Y-52605615D01*
X158184328Y-52408078D01*
X158188408Y-52401421D01*
X158188411Y-52401416D01*
X158315977Y-52193245D01*
X158320061Y-52186581D01*
X158419474Y-51946578D01*
X158480118Y-51693977D01*
X158500500Y-51435000D01*
X158480118Y-51176023D01*
X158419474Y-50923422D01*
X158320061Y-50683419D01*
X158269143Y-50600329D01*
X158188411Y-50468584D01*
X158188408Y-50468579D01*
X158184328Y-50461922D01*
X158015615Y-50264385D01*
X157818078Y-50095672D01*
X157811421Y-50091592D01*
X157811416Y-50091589D01*
X157679671Y-50010857D01*
X157596581Y-49959939D01*
X157482902Y-49912852D01*
X157410675Y-49861602D01*
X157367835Y-49784090D01*
X157362870Y-49695666D01*
X157396762Y-49613844D01*
X157462799Y-49554830D01*
X157547901Y-49530313D01*
X157559058Y-49530000D01*
X167295000Y-49530000D01*
X167381343Y-49549707D01*
G37*
%TD.AperFunction*%
%TD*%
%TA.AperFunction,Conductor*%
%TO.N,Net-(Q1-Pad1)*%
G36*
X162188843Y-58566707D02*
G01*
X162258084Y-58621926D01*
X162296511Y-58701718D01*
X162301500Y-58746000D01*
X162301500Y-60456772D01*
X162281793Y-60543115D01*
X162226574Y-60612356D01*
X162188844Y-60636064D01*
X162164163Y-60647950D01*
X162164157Y-60647953D01*
X162160507Y-60649711D01*
X162089082Y-60691598D01*
X161983759Y-60790663D01*
X161928540Y-60859904D01*
X161882352Y-60928649D01*
X161830443Y-61063602D01*
X161810736Y-61149945D01*
X161810110Y-61155501D01*
X161809121Y-61164279D01*
X161779871Y-61247872D01*
X161717248Y-61310497D01*
X161633655Y-61339748D01*
X161611372Y-61341000D01*
X160411500Y-61341000D01*
X160325157Y-61321293D01*
X160255916Y-61266074D01*
X160217489Y-61186282D01*
X160212500Y-61142000D01*
X160212500Y-60694114D01*
X160211548Y-60685944D01*
X160198361Y-60572845D01*
X160197022Y-60561357D01*
X160136687Y-60395136D01*
X160039731Y-60247253D01*
X159911355Y-60125642D01*
X159758445Y-60036825D01*
X159589204Y-59985567D01*
X159579033Y-59984659D01*
X159579032Y-59984659D01*
X159514440Y-59978894D01*
X159514433Y-59978894D01*
X159510022Y-59978500D01*
X158511114Y-59978500D01*
X158505378Y-59979169D01*
X158505374Y-59979169D01*
X158389840Y-59992639D01*
X158389838Y-59992639D01*
X158378357Y-59993978D01*
X158367489Y-59997923D01*
X158359781Y-59999745D01*
X158271220Y-60000430D01*
X158191133Y-59962623D01*
X158135380Y-59893810D01*
X158115000Y-59806083D01*
X158115000Y-58746000D01*
X158134707Y-58659657D01*
X158189926Y-58590416D01*
X158269718Y-58551989D01*
X158314000Y-58547000D01*
X162102500Y-58547000D01*
X162188843Y-58566707D01*
G37*
%TD.AperFunction*%
%TD*%
%TA.AperFunction,Conductor*%
%TO.N,/OUT*%
G36*
X170831767Y-49549707D02*
G01*
X170901008Y-49604926D01*
X170939435Y-49684718D01*
X170939435Y-49773282D01*
X170901008Y-49853074D01*
X170884550Y-49871285D01*
X170861476Y-49893847D01*
X170871197Y-49909512D01*
X171688145Y-50726460D01*
X171704620Y-50736812D01*
X171712131Y-50734184D01*
X172537203Y-49909112D01*
X172546567Y-49894209D01*
X172522592Y-49870502D01*
X172475053Y-49795779D01*
X172464643Y-49707829D01*
X172493424Y-49624073D01*
X172555696Y-49561099D01*
X172639124Y-49531379D01*
X172662514Y-49530000D01*
X174299000Y-49530000D01*
X174385343Y-49549707D01*
X174454584Y-49604926D01*
X174493011Y-49684718D01*
X174498000Y-49729000D01*
X174498000Y-59237000D01*
X174478293Y-59323343D01*
X174423074Y-59392584D01*
X174343282Y-59431011D01*
X174299000Y-59436000D01*
X170434000Y-59436000D01*
X170434000Y-62793000D01*
X170414293Y-62879343D01*
X170359074Y-62948584D01*
X170279282Y-62987011D01*
X170235000Y-62992000D01*
X167640000Y-62992000D01*
X167640000Y-63124815D01*
X167620293Y-63211158D01*
X167565074Y-63280399D01*
X167485282Y-63318826D01*
X167396718Y-63318826D01*
X167314150Y-63278145D01*
X167300611Y-63266944D01*
X167279640Y-63253635D01*
X167153730Y-63194387D01*
X167130112Y-63186713D01*
X167037026Y-63168955D01*
X167018296Y-63169628D01*
X167015000Y-63185367D01*
X167015000Y-64463000D01*
X166995293Y-64549343D01*
X166940074Y-64618584D01*
X166860282Y-64657011D01*
X166816000Y-64662000D01*
X165709671Y-64662000D01*
X165623328Y-64642293D01*
X165568957Y-64603714D01*
X164988786Y-64023543D01*
X164941667Y-63948555D01*
X164930500Y-63882829D01*
X164930500Y-63872421D01*
X164916401Y-63760821D01*
X165640000Y-63760821D01*
X165640000Y-63839577D01*
X165644330Y-63858547D01*
X165651500Y-63862000D01*
X166192577Y-63862000D01*
X166211547Y-63857670D01*
X166215000Y-63850500D01*
X166215000Y-63188898D01*
X166210670Y-63169928D01*
X166209230Y-63169234D01*
X166197676Y-63168663D01*
X166139524Y-63176009D01*
X166115473Y-63182185D01*
X165986089Y-63233411D01*
X165964323Y-63245377D01*
X165851747Y-63327169D01*
X165833643Y-63344171D01*
X165744947Y-63451385D01*
X165731635Y-63472360D01*
X165672387Y-63598270D01*
X165664713Y-63621888D01*
X165641759Y-63742213D01*
X165640000Y-63760821D01*
X164916401Y-63760821D01*
X164914906Y-63748984D01*
X164854419Y-63596210D01*
X164842086Y-63579234D01*
X164765201Y-63473412D01*
X164757839Y-63463279D01*
X164748192Y-63455299D01*
X164748188Y-63455294D01*
X164701167Y-63416396D01*
X164647200Y-63346175D01*
X164629045Y-63259493D01*
X164650298Y-63173517D01*
X164711041Y-63102070D01*
X164718254Y-63096829D01*
X164736357Y-63079829D01*
X164825053Y-62972615D01*
X164838365Y-62951640D01*
X164897613Y-62825730D01*
X164905287Y-62802112D01*
X164928241Y-62681787D01*
X164928580Y-62678201D01*
X164925670Y-62665453D01*
X164918500Y-62662000D01*
X162753739Y-62662000D01*
X162734769Y-62666330D01*
X162734075Y-62667770D01*
X162733505Y-62679324D01*
X162744009Y-62762474D01*
X162750185Y-62786529D01*
X162801411Y-62915911D01*
X162813377Y-62937677D01*
X162828165Y-62958030D01*
X162862973Y-63039466D01*
X162859000Y-63127940D01*
X162817033Y-63205929D01*
X162745384Y-63257986D01*
X162667171Y-63274000D01*
X162505000Y-63274000D01*
X162418657Y-63254293D01*
X162349416Y-63199074D01*
X162310989Y-63119282D01*
X162306000Y-63075000D01*
X162306000Y-61845799D01*
X162731420Y-61845799D01*
X162734330Y-61858547D01*
X162741500Y-61862000D01*
X163407577Y-61862000D01*
X163426547Y-61857670D01*
X163430000Y-61850500D01*
X163430000Y-61284423D01*
X163427507Y-61273500D01*
X164230000Y-61273500D01*
X164230000Y-61839577D01*
X164234330Y-61858547D01*
X164241500Y-61862000D01*
X164906261Y-61862000D01*
X164925231Y-61857670D01*
X164925925Y-61856230D01*
X164926495Y-61844676D01*
X164915991Y-61761526D01*
X164909815Y-61737471D01*
X164858589Y-61608089D01*
X164846623Y-61586323D01*
X164764831Y-61473747D01*
X164747829Y-61455643D01*
X164640615Y-61366947D01*
X164619640Y-61353635D01*
X164493730Y-61294387D01*
X164470112Y-61286713D01*
X164349787Y-61263759D01*
X164331179Y-61262000D01*
X164252423Y-61262000D01*
X164233453Y-61266330D01*
X164230000Y-61273500D01*
X163427507Y-61273500D01*
X163425670Y-61265453D01*
X163418500Y-61262000D01*
X163346668Y-61262000D01*
X163334225Y-61262783D01*
X163229525Y-61276009D01*
X163205473Y-61282185D01*
X163076089Y-61333411D01*
X163054323Y-61345377D01*
X162941747Y-61427169D01*
X162923643Y-61444171D01*
X162834947Y-61551385D01*
X162821635Y-61572360D01*
X162762387Y-61698270D01*
X162754713Y-61721888D01*
X162731759Y-61842213D01*
X162731420Y-61845799D01*
X162306000Y-61845799D01*
X162306000Y-61262984D01*
X162325707Y-61176641D01*
X162380926Y-61107400D01*
X162460718Y-61068973D01*
X162473867Y-61066434D01*
X162494292Y-61063199D01*
X162529306Y-61057653D01*
X162642347Y-61000056D01*
X162732056Y-60910347D01*
X162789653Y-60797306D01*
X162809500Y-60672000D01*
X162809500Y-59983500D01*
X165359000Y-59983500D01*
X165359000Y-60664176D01*
X165360224Y-60679728D01*
X165376372Y-60781682D01*
X165385933Y-60811108D01*
X165429238Y-60896099D01*
X165447422Y-60921127D01*
X165514873Y-60988578D01*
X165539901Y-61006762D01*
X165624892Y-61050067D01*
X165654318Y-61059628D01*
X165756272Y-61075776D01*
X165771824Y-61077000D01*
X165941577Y-61077000D01*
X165960547Y-61072670D01*
X165964000Y-61065500D01*
X165964000Y-59994423D01*
X165961507Y-59983500D01*
X166764000Y-59983500D01*
X166764000Y-61054577D01*
X166768330Y-61073547D01*
X166775500Y-61077000D01*
X166956176Y-61077000D01*
X166971728Y-61075776D01*
X167073682Y-61059628D01*
X167103108Y-61050067D01*
X167188099Y-61006762D01*
X167213127Y-60988578D01*
X167280578Y-60921127D01*
X167298762Y-60896099D01*
X167342067Y-60811108D01*
X167351628Y-60781682D01*
X167367776Y-60679728D01*
X167369000Y-60664176D01*
X167369000Y-59994423D01*
X167364670Y-59975453D01*
X167357500Y-59972000D01*
X166786423Y-59972000D01*
X166767453Y-59976330D01*
X166764000Y-59983500D01*
X165961507Y-59983500D01*
X165959670Y-59975453D01*
X165952500Y-59972000D01*
X165381423Y-59972000D01*
X165362453Y-59976330D01*
X165359000Y-59983500D01*
X162809500Y-59983500D01*
X162809500Y-58472000D01*
X162789653Y-58346694D01*
X162732056Y-58233653D01*
X162723797Y-58225394D01*
X162690090Y-58146533D01*
X162694063Y-58058059D01*
X162736030Y-57980071D01*
X162807680Y-57928014D01*
X162885892Y-57912000D01*
X165282726Y-57912000D01*
X165369069Y-57931707D01*
X165438310Y-57986926D01*
X165476737Y-58066718D01*
X165476737Y-58155282D01*
X165443719Y-58227971D01*
X165429237Y-58247904D01*
X165385933Y-58332892D01*
X165376372Y-58362318D01*
X165360224Y-58464272D01*
X165359000Y-58479824D01*
X165359000Y-59149577D01*
X165363330Y-59168547D01*
X165370500Y-59172000D01*
X167346577Y-59172000D01*
X167365547Y-59167670D01*
X167369000Y-59160500D01*
X167369000Y-58479824D01*
X167367776Y-58464272D01*
X167351628Y-58362318D01*
X167342067Y-58332892D01*
X167298763Y-58247904D01*
X167284281Y-58227971D01*
X167249472Y-58146535D01*
X167253445Y-58058061D01*
X167295411Y-57980072D01*
X167367060Y-57928015D01*
X167445274Y-57912000D01*
X167894000Y-57912000D01*
X167894000Y-56539500D01*
X170504000Y-56539500D01*
X170504000Y-57661332D01*
X170504783Y-57673775D01*
X170518009Y-57778475D01*
X170524185Y-57802527D01*
X170575411Y-57931911D01*
X170587377Y-57953677D01*
X170669169Y-58066253D01*
X170686171Y-58084357D01*
X170793385Y-58173053D01*
X170814360Y-58186365D01*
X170940270Y-58245613D01*
X170963888Y-58253287D01*
X171084213Y-58276241D01*
X171102821Y-58278000D01*
X171281577Y-58278000D01*
X171300547Y-58273670D01*
X171304000Y-58266500D01*
X171304000Y-56550423D01*
X171301507Y-56539500D01*
X172104000Y-56539500D01*
X172104000Y-58255577D01*
X172108330Y-58274547D01*
X172115500Y-58278000D01*
X172287332Y-58278000D01*
X172299775Y-58277217D01*
X172404475Y-58263991D01*
X172428527Y-58257815D01*
X172557911Y-58206589D01*
X172579677Y-58194623D01*
X172692253Y-58112831D01*
X172710357Y-58095829D01*
X172799053Y-57988615D01*
X172812365Y-57967640D01*
X172871613Y-57841730D01*
X172879287Y-57818112D01*
X172902241Y-57697787D01*
X172904000Y-57679179D01*
X172904000Y-56550423D01*
X172899670Y-56531453D01*
X172892500Y-56528000D01*
X172126423Y-56528000D01*
X172107453Y-56532330D01*
X172104000Y-56539500D01*
X171301507Y-56539500D01*
X171299670Y-56531453D01*
X171292500Y-56528000D01*
X170526423Y-56528000D01*
X170507453Y-56532330D01*
X170504000Y-56539500D01*
X167894000Y-56539500D01*
X167894000Y-54576821D01*
X170504000Y-54576821D01*
X170504000Y-55705577D01*
X170508330Y-55724547D01*
X170515500Y-55728000D01*
X171281577Y-55728000D01*
X171300547Y-55723670D01*
X171304000Y-55716500D01*
X171304000Y-54000423D01*
X171301507Y-53989500D01*
X172104000Y-53989500D01*
X172104000Y-55705577D01*
X172108330Y-55724547D01*
X172115500Y-55728000D01*
X172881577Y-55728000D01*
X172900547Y-55723670D01*
X172904000Y-55716500D01*
X172904000Y-54594668D01*
X172903217Y-54582225D01*
X172889991Y-54477525D01*
X172883815Y-54453473D01*
X172832589Y-54324089D01*
X172820623Y-54302323D01*
X172738831Y-54189747D01*
X172721829Y-54171643D01*
X172614615Y-54082947D01*
X172593640Y-54069635D01*
X172467730Y-54010387D01*
X172444112Y-54002713D01*
X172323787Y-53979759D01*
X172305179Y-53978000D01*
X172126423Y-53978000D01*
X172107453Y-53982330D01*
X172104000Y-53989500D01*
X171301507Y-53989500D01*
X171299670Y-53981453D01*
X171292500Y-53978000D01*
X171120668Y-53978000D01*
X171108225Y-53978783D01*
X171003525Y-53992009D01*
X170979473Y-53998185D01*
X170850089Y-54049411D01*
X170828323Y-54061377D01*
X170715747Y-54143169D01*
X170697643Y-54160171D01*
X170608947Y-54267385D01*
X170595635Y-54288360D01*
X170536387Y-54414270D01*
X170528713Y-54437888D01*
X170505759Y-54558213D01*
X170504000Y-54576821D01*
X167894000Y-54576821D01*
X167894000Y-52721790D01*
X170861433Y-52721790D01*
X170874546Y-52734756D01*
X170945974Y-52778527D01*
X170959873Y-52785610D01*
X171185351Y-52879006D01*
X171200181Y-52883825D01*
X171437499Y-52940799D01*
X171452893Y-52943237D01*
X171696211Y-52962387D01*
X171711789Y-52962387D01*
X171955107Y-52943237D01*
X171970501Y-52940799D01*
X172207819Y-52883825D01*
X172222649Y-52879006D01*
X172448127Y-52785610D01*
X172462026Y-52778527D01*
X172533938Y-52734459D01*
X172546524Y-52722153D01*
X172536803Y-52706488D01*
X171719855Y-51889540D01*
X171703380Y-51879188D01*
X171695869Y-51881816D01*
X170870797Y-52706888D01*
X170861433Y-52721790D01*
X167894000Y-52721790D01*
X167894000Y-51300211D01*
X170049613Y-51300211D01*
X170049613Y-51315789D01*
X170068763Y-51559107D01*
X170071201Y-51574501D01*
X170128175Y-51811819D01*
X170132994Y-51826649D01*
X170226390Y-52052127D01*
X170233473Y-52066026D01*
X170277541Y-52137938D01*
X170289847Y-52150524D01*
X170305512Y-52140803D01*
X171122460Y-51323855D01*
X171132033Y-51308620D01*
X172275188Y-51308620D01*
X172277816Y-51316131D01*
X173102888Y-52141203D01*
X173117790Y-52150567D01*
X173130756Y-52137454D01*
X173174527Y-52066026D01*
X173181610Y-52052127D01*
X173275006Y-51826649D01*
X173279825Y-51811819D01*
X173336799Y-51574501D01*
X173339237Y-51559107D01*
X173358387Y-51315789D01*
X173358387Y-51300211D01*
X173339237Y-51056893D01*
X173336799Y-51041499D01*
X173279825Y-50804181D01*
X173275006Y-50789351D01*
X173181610Y-50563873D01*
X173174527Y-50549974D01*
X173130459Y-50478062D01*
X173118153Y-50465476D01*
X173102488Y-50475197D01*
X172285540Y-51292145D01*
X172275188Y-51308620D01*
X171132033Y-51308620D01*
X171132812Y-51307380D01*
X171130184Y-51299869D01*
X170305112Y-50474797D01*
X170290210Y-50465433D01*
X170277244Y-50478546D01*
X170233473Y-50549974D01*
X170226390Y-50563873D01*
X170132994Y-50789351D01*
X170128175Y-50804181D01*
X170071201Y-51041499D01*
X170068763Y-51056893D01*
X170049613Y-51300211D01*
X167894000Y-51300211D01*
X167894000Y-49729000D01*
X167913707Y-49642657D01*
X167968926Y-49573416D01*
X168048718Y-49534989D01*
X168093000Y-49530000D01*
X170745424Y-49530000D01*
X170831767Y-49549707D01*
G37*
%TD.AperFunction*%
%TD*%
%TA.AperFunction,Conductor*%
%TO.N,/PROG*%
G36*
X145227737Y-59371207D02*
G01*
X145268243Y-59397169D01*
X145286065Y-59411913D01*
X145305191Y-59429995D01*
X145323345Y-59449589D01*
X145340480Y-59464157D01*
X145391437Y-59507482D01*
X145391447Y-59507490D01*
X145394790Y-59510332D01*
X145467929Y-59562137D01*
X145478596Y-59566461D01*
X145478599Y-59566463D01*
X145579264Y-59607272D01*
X145651878Y-59657975D01*
X145695301Y-59735162D01*
X145703500Y-59791694D01*
X145703500Y-60436886D01*
X145718978Y-60569643D01*
X145722923Y-60580512D01*
X145722924Y-60580515D01*
X145773198Y-60719017D01*
X145779313Y-60735864D01*
X145876269Y-60883747D01*
X146004645Y-61005358D01*
X146157555Y-61094175D01*
X146168621Y-61097527D01*
X146168622Y-61097527D01*
X146289684Y-61134193D01*
X146366607Y-61178082D01*
X146416870Y-61251001D01*
X146431000Y-61324649D01*
X146431000Y-61681394D01*
X146411293Y-61767737D01*
X146356074Y-61836978D01*
X146276282Y-61875405D01*
X146255045Y-61879055D01*
X146161357Y-61889978D01*
X146150488Y-61893923D01*
X146150485Y-61893924D01*
X146006006Y-61946367D01*
X146006003Y-61946368D01*
X145995136Y-61950313D01*
X145918662Y-62000452D01*
X145856921Y-62040930D01*
X145856919Y-62040932D01*
X145847253Y-62047269D01*
X145725642Y-62175645D01*
X145636825Y-62328555D01*
X145585567Y-62497796D01*
X145578500Y-62576978D01*
X145578500Y-63350886D01*
X145579169Y-63356622D01*
X145579169Y-63356626D01*
X145584167Y-63399494D01*
X145593978Y-63483643D01*
X145597925Y-63494516D01*
X145600583Y-63505762D01*
X145597643Y-63506457D01*
X145606168Y-63574997D01*
X145577884Y-63658922D01*
X145515988Y-63722265D01*
X145432737Y-63752478D01*
X145408175Y-63754000D01*
X143328000Y-63754000D01*
X143241657Y-63734293D01*
X143172416Y-63679074D01*
X143133989Y-63599282D01*
X143129000Y-63555000D01*
X143129000Y-60778000D01*
X143148707Y-60691657D01*
X143203926Y-60622416D01*
X143283718Y-60583989D01*
X143328000Y-60579000D01*
X143612500Y-60579000D01*
X143623417Y-60578387D01*
X143666587Y-60575963D01*
X143666604Y-60575962D01*
X143669374Y-60575806D01*
X143672129Y-60575496D01*
X143672148Y-60575494D01*
X143712378Y-60570961D01*
X143712379Y-60570961D01*
X143713656Y-60570817D01*
X143739326Y-60567260D01*
X143747316Y-60564736D01*
X143747319Y-60564735D01*
X143870421Y-60525842D01*
X143870420Y-60525842D01*
X143877201Y-60523700D01*
X143956993Y-60485273D01*
X144028418Y-60443386D01*
X144041471Y-60431109D01*
X144128567Y-60349188D01*
X144128570Y-60349185D01*
X144133741Y-60344321D01*
X144188960Y-60275080D01*
X144235148Y-60206335D01*
X144239937Y-60193886D01*
X144284508Y-60078008D01*
X144287057Y-60071382D01*
X144306764Y-59985039D01*
X144319500Y-59872000D01*
X144319500Y-59550500D01*
X144339207Y-59464157D01*
X144394426Y-59394916D01*
X144474218Y-59356489D01*
X144518500Y-59351500D01*
X145141394Y-59351500D01*
X145227737Y-59371207D01*
G37*
%TD.AperFunction*%
%TD*%
%TA.AperFunction,Conductor*%
%TO.N,GND*%
G36*
X175908683Y-48026124D02*
G01*
X175978127Y-48081087D01*
X176016847Y-48160738D01*
X176022000Y-48205733D01*
X176022000Y-71810000D01*
X176002293Y-71896343D01*
X175947074Y-71965584D01*
X175867282Y-72004011D01*
X175823000Y-72009000D01*
X141677000Y-72009000D01*
X141590657Y-71989293D01*
X141521416Y-71934074D01*
X141482989Y-71854282D01*
X141478000Y-71810000D01*
X141478000Y-67594500D01*
X143304000Y-67594500D01*
X143304000Y-67666332D01*
X143304783Y-67678775D01*
X143318009Y-67783475D01*
X143324185Y-67807527D01*
X143375411Y-67936911D01*
X143387377Y-67958677D01*
X143469169Y-68071253D01*
X143486171Y-68089357D01*
X143593385Y-68178053D01*
X143614360Y-68191365D01*
X143740270Y-68250613D01*
X143763888Y-68258287D01*
X143884213Y-68281241D01*
X143887799Y-68281580D01*
X143900547Y-68278670D01*
X143904000Y-68271500D01*
X143904000Y-67605423D01*
X143899670Y-67586453D01*
X143892500Y-67583000D01*
X143326423Y-67583000D01*
X143307453Y-67587330D01*
X143304000Y-67594500D01*
X141478000Y-67594500D01*
X141478000Y-65425324D01*
X143175505Y-65425324D01*
X143186009Y-65508474D01*
X143192185Y-65532529D01*
X143243411Y-65661911D01*
X143255377Y-65683677D01*
X143337169Y-65796253D01*
X143354171Y-65814357D01*
X143461385Y-65903053D01*
X143492936Y-65923077D01*
X143491339Y-65925594D01*
X143545051Y-65967635D01*
X143584200Y-66047076D01*
X143585004Y-66135635D01*
X143547304Y-66215774D01*
X143523803Y-66238451D01*
X143524878Y-66239595D01*
X143497643Y-66265171D01*
X143408947Y-66372385D01*
X143395635Y-66393360D01*
X143336387Y-66519270D01*
X143328713Y-66542888D01*
X143305759Y-66663213D01*
X143304000Y-66681821D01*
X143304000Y-66760577D01*
X143308330Y-66779547D01*
X143315500Y-66783000D01*
X143881577Y-66783000D01*
X143900547Y-66778670D01*
X143904000Y-66771500D01*
X143904000Y-66106739D01*
X143893669Y-66061476D01*
X143876989Y-66026839D01*
X143872000Y-65982558D01*
X143872000Y-65430423D01*
X143867670Y-65411453D01*
X143860500Y-65408000D01*
X143195739Y-65408000D01*
X143176769Y-65412330D01*
X143176075Y-65413770D01*
X143175505Y-65425324D01*
X141478000Y-65425324D01*
X141478000Y-60778000D01*
X142621000Y-60778000D01*
X142621000Y-63555000D01*
X142621157Y-63557794D01*
X142624036Y-63609053D01*
X142624194Y-63611874D01*
X142624504Y-63614629D01*
X142624506Y-63614648D01*
X142625953Y-63627489D01*
X142629183Y-63656156D01*
X142632740Y-63681826D01*
X142635264Y-63689816D01*
X142635265Y-63689819D01*
X142658861Y-63764505D01*
X142676300Y-63819701D01*
X142714727Y-63899493D01*
X142756614Y-63970918D01*
X142764270Y-63979058D01*
X142764271Y-63979059D01*
X142841344Y-64061000D01*
X142855679Y-64076241D01*
X142924920Y-64131460D01*
X142993665Y-64177648D01*
X143004094Y-64181660D01*
X143004097Y-64181661D01*
X143081849Y-64211568D01*
X143155361Y-64260960D01*
X143200163Y-64337355D01*
X143207381Y-64425624D01*
X143199667Y-64458797D01*
X143196712Y-64467891D01*
X143173759Y-64588213D01*
X143173420Y-64591799D01*
X143176330Y-64604547D01*
X143183500Y-64608000D01*
X144473000Y-64608000D01*
X144559343Y-64627707D01*
X144628584Y-64682926D01*
X144667011Y-64762718D01*
X144672000Y-64807000D01*
X144672000Y-65985577D01*
X144682331Y-66030840D01*
X144699011Y-66065477D01*
X144704000Y-66109758D01*
X144704000Y-68259261D01*
X144708330Y-68278231D01*
X144709770Y-68278925D01*
X144721324Y-68279495D01*
X144804474Y-68268991D01*
X144828529Y-68262815D01*
X144957911Y-68211589D01*
X144979677Y-68199623D01*
X145092253Y-68117831D01*
X145110357Y-68100829D01*
X145148978Y-68054145D01*
X145219200Y-68000179D01*
X145305883Y-67982025D01*
X145391858Y-68003280D01*
X145463300Y-68064019D01*
X145476161Y-68081721D01*
X145602766Y-68186457D01*
X145614090Y-68191786D01*
X145614092Y-68191787D01*
X145739103Y-68250613D01*
X145751439Y-68256418D01*
X145787500Y-68263297D01*
X145884186Y-68281741D01*
X145884188Y-68281741D01*
X145893408Y-68283500D01*
X146693579Y-68283500D01*
X146817016Y-68267906D01*
X146969790Y-68207419D01*
X146980521Y-68199623D01*
X147092588Y-68118201D01*
X147102721Y-68110839D01*
X147207457Y-67984234D01*
X147219484Y-67958677D01*
X147272087Y-67846890D01*
X147272087Y-67846889D01*
X147277418Y-67835561D01*
X147297113Y-67732314D01*
X147302741Y-67702814D01*
X147302741Y-67702812D01*
X147304500Y-67693592D01*
X147304500Y-67368163D01*
X147324207Y-67281820D01*
X147362786Y-67227449D01*
X148724541Y-65865694D01*
X148744104Y-65848537D01*
X148764153Y-65833153D01*
X148787473Y-65802762D01*
X148860379Y-65707750D01*
X148920868Y-65561714D01*
X148941500Y-65405000D01*
X148938202Y-65379949D01*
X148936500Y-65353974D01*
X148936500Y-64471000D01*
X148956207Y-64384657D01*
X149011426Y-64315416D01*
X149091218Y-64276989D01*
X149135500Y-64272000D01*
X149569077Y-64272000D01*
X149588047Y-64267670D01*
X149591500Y-64260500D01*
X149591500Y-63821500D01*
X149611207Y-63735157D01*
X149666426Y-63665916D01*
X149746218Y-63627489D01*
X149790500Y-63622500D01*
X149792500Y-63622500D01*
X149878843Y-63642207D01*
X149948084Y-63697426D01*
X149986511Y-63777218D01*
X149991500Y-63821500D01*
X149991500Y-64249577D01*
X149995830Y-64268547D01*
X150003000Y-64272000D01*
X150456831Y-64272000D01*
X150470927Y-64270996D01*
X150556698Y-64258712D01*
X150583646Y-64250833D01*
X150688177Y-64203304D01*
X150711816Y-64188186D01*
X150798813Y-64113226D01*
X150817260Y-64092079D01*
X150879718Y-63995719D01*
X150891489Y-63970243D01*
X150925365Y-63856971D01*
X150928923Y-63837677D01*
X150929000Y-63835600D01*
X150929000Y-63821500D01*
X150948707Y-63735157D01*
X151003926Y-63665916D01*
X151083718Y-63627489D01*
X151128000Y-63622500D01*
X151590837Y-63622500D01*
X151677180Y-63642207D01*
X151731548Y-63680783D01*
X151995216Y-63944452D01*
X152042333Y-64019439D01*
X152053500Y-64085164D01*
X152053500Y-66655392D01*
X152033793Y-66741735D01*
X151978574Y-66810976D01*
X151930655Y-66839243D01*
X151902419Y-66850939D01*
X151819329Y-66901857D01*
X151687584Y-66982589D01*
X151687579Y-66982592D01*
X151680922Y-66986672D01*
X151483385Y-67155385D01*
X151314672Y-67352922D01*
X151310592Y-67359579D01*
X151310589Y-67359584D01*
X151234476Y-67483790D01*
X151178939Y-67574419D01*
X151079526Y-67814422D01*
X151018882Y-68067023D01*
X150998500Y-68326000D01*
X151018882Y-68584977D01*
X151079526Y-68837578D01*
X151178939Y-69077581D01*
X151183023Y-69084245D01*
X151310589Y-69292416D01*
X151310592Y-69292421D01*
X151314672Y-69299078D01*
X151483385Y-69496615D01*
X151680922Y-69665328D01*
X151687579Y-69669408D01*
X151687584Y-69669411D01*
X151814245Y-69747028D01*
X151902419Y-69801061D01*
X152142422Y-69900474D01*
X152395023Y-69961118D01*
X152654000Y-69981500D01*
X152912977Y-69961118D01*
X153165578Y-69900474D01*
X153405581Y-69801061D01*
X153493755Y-69747028D01*
X153620416Y-69669411D01*
X153620421Y-69669408D01*
X153627078Y-69665328D01*
X153824615Y-69496615D01*
X153993328Y-69299078D01*
X153997408Y-69292421D01*
X153997411Y-69292416D01*
X154124977Y-69084245D01*
X154129061Y-69077581D01*
X154228474Y-68837578D01*
X154289118Y-68584977D01*
X154309500Y-68326000D01*
X154289118Y-68067023D01*
X154228474Y-67814422D01*
X154129061Y-67574419D01*
X154073524Y-67483790D01*
X153997411Y-67359584D01*
X153997408Y-67359579D01*
X153993328Y-67352922D01*
X153824615Y-67155385D01*
X153627078Y-66986672D01*
X153620421Y-66982592D01*
X153620416Y-66982589D01*
X153488671Y-66901857D01*
X153405581Y-66850939D01*
X153377346Y-66839244D01*
X153305118Y-66787996D01*
X153262278Y-66710484D01*
X153254500Y-66655392D01*
X153254500Y-65617625D01*
X153274207Y-65531282D01*
X153329426Y-65462041D01*
X153409218Y-65423614D01*
X153497782Y-65423614D01*
X153577574Y-65462041D01*
X153632793Y-65531282D01*
X153637352Y-65541471D01*
X153648631Y-65568702D01*
X153648633Y-65568705D01*
X153653622Y-65580750D01*
X153661560Y-65591095D01*
X153661563Y-65591100D01*
X153677483Y-65611847D01*
X153741904Y-65695803D01*
X153741909Y-65695808D01*
X153749847Y-65706153D01*
X153769896Y-65721537D01*
X153789459Y-65738694D01*
X155620084Y-67569319D01*
X155667203Y-67644307D01*
X155677119Y-67732314D01*
X155663220Y-67786191D01*
X155654516Y-67807202D01*
X155654514Y-67807209D01*
X155651526Y-67814422D01*
X155590882Y-68067023D01*
X155570500Y-68326000D01*
X155590882Y-68584977D01*
X155651526Y-68837578D01*
X155750939Y-69077581D01*
X155755023Y-69084245D01*
X155882589Y-69292416D01*
X155882592Y-69292421D01*
X155886672Y-69299078D01*
X156055385Y-69496615D01*
X156252922Y-69665328D01*
X156259579Y-69669408D01*
X156259584Y-69669411D01*
X156386245Y-69747028D01*
X156474419Y-69801061D01*
X156714422Y-69900474D01*
X156967023Y-69961118D01*
X157226000Y-69981500D01*
X157484977Y-69961118D01*
X157737578Y-69900474D01*
X157977581Y-69801061D01*
X158065755Y-69747028D01*
X158192416Y-69669411D01*
X158192421Y-69669408D01*
X158199078Y-69665328D01*
X158396615Y-69496615D01*
X158565328Y-69299078D01*
X158569408Y-69292421D01*
X158569411Y-69292416D01*
X158696977Y-69084245D01*
X158701061Y-69077581D01*
X158800474Y-68837578D01*
X158861118Y-68584977D01*
X158881500Y-68326000D01*
X158861118Y-68067023D01*
X158800474Y-67814422D01*
X158701061Y-67574419D01*
X158645524Y-67483790D01*
X158569411Y-67359584D01*
X158569408Y-67359579D01*
X158565328Y-67352922D01*
X158396615Y-67155385D01*
X158203936Y-66990821D01*
X158151079Y-66919760D01*
X158134289Y-66832803D01*
X158156891Y-66747172D01*
X158214408Y-66679828D01*
X158295449Y-66644109D01*
X158333176Y-66640500D01*
X159180837Y-66640500D01*
X159267180Y-66660207D01*
X159321551Y-66698786D01*
X160192084Y-67569319D01*
X160239203Y-67644307D01*
X160249119Y-67732314D01*
X160235220Y-67786191D01*
X160226516Y-67807202D01*
X160226514Y-67807209D01*
X160223526Y-67814422D01*
X160162882Y-68067023D01*
X160142500Y-68326000D01*
X160162882Y-68584977D01*
X160223526Y-68837578D01*
X160322939Y-69077581D01*
X160327023Y-69084245D01*
X160454589Y-69292416D01*
X160454592Y-69292421D01*
X160458672Y-69299078D01*
X160627385Y-69496615D01*
X160824922Y-69665328D01*
X160831579Y-69669408D01*
X160831584Y-69669411D01*
X160958245Y-69747028D01*
X161046419Y-69801061D01*
X161286422Y-69900474D01*
X161539023Y-69961118D01*
X161798000Y-69981500D01*
X162056977Y-69961118D01*
X162309578Y-69900474D01*
X162501086Y-69821148D01*
X162577241Y-69806000D01*
X165267071Y-69806000D01*
X165304360Y-69809525D01*
X165342186Y-69816741D01*
X165342188Y-69816741D01*
X165351408Y-69818500D01*
X166351579Y-69818500D01*
X166475016Y-69802906D01*
X166627790Y-69742419D01*
X166760721Y-69645839D01*
X166865457Y-69519234D01*
X166935418Y-69370561D01*
X166962500Y-69228592D01*
X166962500Y-68428421D01*
X166946906Y-68304984D01*
X166886419Y-68152210D01*
X166864447Y-68121968D01*
X166829640Y-68040531D01*
X166833614Y-67952057D01*
X166875582Y-67874069D01*
X166947231Y-67822013D01*
X167025442Y-67806000D01*
X167926329Y-67806000D01*
X168012672Y-67825707D01*
X168067043Y-67864286D01*
X168224471Y-68021714D01*
X168271590Y-68096702D01*
X168282144Y-68178041D01*
X168273996Y-68281580D01*
X168270500Y-68326000D01*
X168290882Y-68584977D01*
X168351526Y-68837578D01*
X168450939Y-69077581D01*
X168455023Y-69084245D01*
X168582589Y-69292416D01*
X168582592Y-69292421D01*
X168586672Y-69299078D01*
X168755385Y-69496615D01*
X168952922Y-69665328D01*
X168959579Y-69669408D01*
X168959584Y-69669411D01*
X169086245Y-69747028D01*
X169174419Y-69801061D01*
X169414422Y-69900474D01*
X169667023Y-69961118D01*
X169926000Y-69981500D01*
X170184977Y-69961118D01*
X170437578Y-69900474D01*
X170677581Y-69801061D01*
X170765755Y-69747028D01*
X170892416Y-69669411D01*
X170892421Y-69669408D01*
X170899078Y-69665328D01*
X171096615Y-69496615D01*
X171265328Y-69299078D01*
X171269408Y-69292421D01*
X171269411Y-69292416D01*
X171396977Y-69084245D01*
X171401061Y-69077581D01*
X171500474Y-68837578D01*
X171561118Y-68584977D01*
X171581500Y-68326000D01*
X171561118Y-68067023D01*
X171500474Y-67814422D01*
X171401061Y-67574419D01*
X171345524Y-67483790D01*
X171269411Y-67359584D01*
X171269408Y-67359579D01*
X171265328Y-67352922D01*
X171096615Y-67155385D01*
X170899078Y-66986672D01*
X170892421Y-66982592D01*
X170892416Y-66982589D01*
X170760671Y-66901857D01*
X170677581Y-66850939D01*
X170437578Y-66751526D01*
X170184977Y-66690882D01*
X169926000Y-66670500D01*
X169918211Y-66671113D01*
X169778041Y-66682144D01*
X169690418Y-66669271D01*
X169621714Y-66624471D01*
X169126228Y-66128985D01*
X169122354Y-66125001D01*
X169073776Y-66073631D01*
X169073775Y-66073630D01*
X169066847Y-66066304D01*
X169054675Y-66057781D01*
X169020290Y-66033704D01*
X169008658Y-66024907D01*
X168999408Y-66017363D01*
X168964627Y-65988996D01*
X168955696Y-65984327D01*
X168955693Y-65984325D01*
X168943722Y-65978067D01*
X168921778Y-65964725D01*
X168910701Y-65956969D01*
X168902445Y-65951188D01*
X168890928Y-65946204D01*
X168850279Y-65928614D01*
X168837125Y-65922340D01*
X168786768Y-65896014D01*
X168764089Y-65889511D01*
X168739914Y-65880855D01*
X168718253Y-65871482D01*
X168708387Y-65869421D01*
X168708381Y-65869419D01*
X168662626Y-65859860D01*
X168648471Y-65856357D01*
X168603539Y-65843473D01*
X168603532Y-65843472D01*
X168593845Y-65840694D01*
X168572501Y-65839051D01*
X168570315Y-65838883D01*
X168544902Y-65835267D01*
X168521797Y-65830440D01*
X168513402Y-65830000D01*
X168462509Y-65830000D01*
X168447241Y-65829413D01*
X168393738Y-65825296D01*
X168368922Y-65828431D01*
X168343981Y-65830000D01*
X166851559Y-65830000D01*
X166765216Y-65810293D01*
X166695975Y-65755074D01*
X166688576Y-65744007D01*
X166688043Y-65744377D01*
X166682288Y-65736096D01*
X166677401Y-65727281D01*
X166662045Y-65709365D01*
X166646621Y-65688822D01*
X166634607Y-65670462D01*
X166603821Y-65587422D01*
X166612113Y-65499248D01*
X166657841Y-65423403D01*
X166731948Y-65374911D01*
X166801125Y-65362500D01*
X166979579Y-65362500D01*
X167103016Y-65346906D01*
X167255790Y-65286419D01*
X167266521Y-65278623D01*
X167378588Y-65197201D01*
X167388721Y-65189839D01*
X167488845Y-65068809D01*
X167559067Y-65014842D01*
X167645750Y-64996688D01*
X167731725Y-65017942D01*
X167803171Y-65078685D01*
X167855168Y-65150251D01*
X167872171Y-65168357D01*
X167979385Y-65257053D01*
X168000360Y-65270365D01*
X168126270Y-65329613D01*
X168149888Y-65337287D01*
X168242974Y-65355045D01*
X168261704Y-65354372D01*
X168265000Y-65338633D01*
X168265000Y-64673500D01*
X169065000Y-64673500D01*
X169065000Y-65335102D01*
X169069330Y-65354072D01*
X169070770Y-65354766D01*
X169082324Y-65355337D01*
X169140476Y-65347991D01*
X169164527Y-65341815D01*
X169293911Y-65290589D01*
X169315677Y-65278623D01*
X169428253Y-65196831D01*
X169446357Y-65179829D01*
X169535053Y-65072615D01*
X169548365Y-65051640D01*
X169607613Y-64925730D01*
X169615287Y-64902112D01*
X169638241Y-64781787D01*
X169640000Y-64763179D01*
X169640000Y-64684423D01*
X169635670Y-64665453D01*
X169628500Y-64662000D01*
X169087423Y-64662000D01*
X169068453Y-64666330D01*
X169065000Y-64673500D01*
X168265000Y-64673500D01*
X168265000Y-64061000D01*
X168284707Y-63974657D01*
X168339926Y-63905416D01*
X168419718Y-63866989D01*
X168464000Y-63862000D01*
X169617577Y-63862000D01*
X169636547Y-63857670D01*
X169640000Y-63850500D01*
X169640000Y-63778668D01*
X169639217Y-63766225D01*
X169625991Y-63661530D01*
X169620589Y-63640490D01*
X169618204Y-63551959D01*
X169654468Y-63471160D01*
X169722197Y-63414097D01*
X169813337Y-63392000D01*
X170235000Y-63392000D01*
X170243773Y-63391507D01*
X170276995Y-63389642D01*
X170277012Y-63389641D01*
X170279782Y-63389485D01*
X170282537Y-63389175D01*
X170282556Y-63389173D01*
X170315733Y-63385435D01*
X170315738Y-63385434D01*
X170324064Y-63384496D01*
X170332122Y-63382175D01*
X170339931Y-63380621D01*
X170428460Y-63383104D01*
X170507144Y-63423752D01*
X170563783Y-63502543D01*
X170575407Y-63531904D01*
X170587377Y-63553677D01*
X170669169Y-63666253D01*
X170686171Y-63684357D01*
X170793385Y-63773053D01*
X170814360Y-63786365D01*
X170940270Y-63845613D01*
X170963888Y-63853287D01*
X171084213Y-63876241D01*
X171102821Y-63878000D01*
X171281577Y-63878000D01*
X171300547Y-63873670D01*
X171304000Y-63866500D01*
X171304000Y-62139500D01*
X172104000Y-62139500D01*
X172104000Y-63855577D01*
X172108330Y-63874547D01*
X172115500Y-63878000D01*
X172287332Y-63878000D01*
X172299775Y-63877217D01*
X172404475Y-63863991D01*
X172428527Y-63857815D01*
X172557911Y-63806589D01*
X172579677Y-63794623D01*
X172692253Y-63712831D01*
X172710357Y-63695829D01*
X172799053Y-63588615D01*
X172812365Y-63567640D01*
X172871613Y-63441730D01*
X172879287Y-63418112D01*
X172902241Y-63297787D01*
X172904000Y-63279179D01*
X172904000Y-62150423D01*
X172899670Y-62131453D01*
X172892500Y-62128000D01*
X172126423Y-62128000D01*
X172107453Y-62132330D01*
X172104000Y-62139500D01*
X171304000Y-62139500D01*
X171304000Y-61527000D01*
X171323707Y-61440657D01*
X171378926Y-61371416D01*
X171458718Y-61332989D01*
X171503000Y-61328000D01*
X172881577Y-61328000D01*
X172900547Y-61323670D01*
X172904000Y-61316500D01*
X172904000Y-60194668D01*
X172903217Y-60182225D01*
X172888422Y-60065108D01*
X172891248Y-60064751D01*
X172889391Y-59995970D01*
X172925650Y-59915169D01*
X172993376Y-59858103D01*
X173084526Y-59836000D01*
X174299000Y-59836000D01*
X174307773Y-59835507D01*
X174340995Y-59833642D01*
X174341012Y-59833641D01*
X174343782Y-59833485D01*
X174346537Y-59833175D01*
X174346556Y-59833173D01*
X174368598Y-59830689D01*
X174388064Y-59828496D01*
X174516840Y-59791396D01*
X174596632Y-59752969D01*
X174599529Y-59751325D01*
X174599539Y-59751320D01*
X174633704Y-59731934D01*
X174643429Y-59726416D01*
X174735804Y-59641983D01*
X174791023Y-59572742D01*
X174821673Y-59528502D01*
X174825834Y-59518129D01*
X174825836Y-59518125D01*
X174865354Y-59419606D01*
X174865356Y-59419600D01*
X174868264Y-59412350D01*
X174887971Y-59326007D01*
X174898000Y-59237000D01*
X174898000Y-49729000D01*
X174897387Y-49718091D01*
X174895642Y-49687005D01*
X174895641Y-49686988D01*
X174895485Y-49684218D01*
X174895175Y-49681463D01*
X174895173Y-49681444D01*
X174892176Y-49654845D01*
X174890496Y-49639936D01*
X174853396Y-49511160D01*
X174814969Y-49431368D01*
X174788416Y-49384571D01*
X174769244Y-49363595D01*
X174709264Y-49297974D01*
X174703983Y-49292196D01*
X174634742Y-49236977D01*
X174590502Y-49206327D01*
X174580129Y-49202166D01*
X174580125Y-49202164D01*
X174481606Y-49162646D01*
X174481600Y-49162644D01*
X174474350Y-49159736D01*
X174466735Y-49157998D01*
X174466732Y-49157997D01*
X174413931Y-49145946D01*
X174388007Y-49140029D01*
X174382472Y-49139405D01*
X174382464Y-49139404D01*
X174304542Y-49130624D01*
X174304534Y-49130624D01*
X174299000Y-49130000D01*
X172662514Y-49130000D01*
X172638972Y-49130693D01*
X172637512Y-49130779D01*
X172637491Y-49130780D01*
X172626598Y-49131423D01*
X172615582Y-49132072D01*
X172608674Y-49133476D01*
X172608669Y-49133477D01*
X172579515Y-49139404D01*
X172504893Y-49154574D01*
X172498248Y-49156941D01*
X172498245Y-49156942D01*
X172467264Y-49167979D01*
X172421465Y-49184294D01*
X172418395Y-49185627D01*
X172418394Y-49185627D01*
X172382358Y-49201269D01*
X172382355Y-49201271D01*
X172372105Y-49205720D01*
X172271272Y-49279846D01*
X172209000Y-49342820D01*
X172206820Y-49345344D01*
X172181122Y-49375093D01*
X172181120Y-49375096D01*
X172173820Y-49383547D01*
X172115135Y-49494082D01*
X172112597Y-49501467D01*
X172112593Y-49501477D01*
X172101411Y-49534020D01*
X172054714Y-49609272D01*
X171979991Y-49656811D01*
X171897600Y-49667737D01*
X171704000Y-49652500D01*
X171510651Y-49667717D01*
X171423029Y-49654845D01*
X171349668Y-49605229D01*
X171304446Y-49526563D01*
X171302069Y-49518648D01*
X171302067Y-49518644D01*
X171299820Y-49511160D01*
X171291596Y-49494082D01*
X171262841Y-49434375D01*
X171261393Y-49431368D01*
X171234840Y-49384571D01*
X171215668Y-49363595D01*
X171155688Y-49297974D01*
X171150407Y-49292196D01*
X171081166Y-49236977D01*
X171036926Y-49206327D01*
X171026553Y-49202166D01*
X171026549Y-49202164D01*
X170928030Y-49162646D01*
X170928024Y-49162644D01*
X170920774Y-49159736D01*
X170913159Y-49157998D01*
X170913156Y-49157997D01*
X170860355Y-49145946D01*
X170834431Y-49140029D01*
X170828896Y-49139405D01*
X170828888Y-49139404D01*
X170750966Y-49130624D01*
X170750958Y-49130624D01*
X170745424Y-49130000D01*
X168093000Y-49130000D01*
X168084631Y-49130470D01*
X168051005Y-49132358D01*
X168050988Y-49132359D01*
X168048218Y-49132515D01*
X168045463Y-49132825D01*
X168045444Y-49132827D01*
X168023402Y-49135311D01*
X168003936Y-49137504D01*
X167875160Y-49174604D01*
X167795368Y-49213031D01*
X167792460Y-49214681D01*
X167789493Y-49216235D01*
X167788989Y-49215273D01*
X167709327Y-49239199D01*
X167621853Y-49225348D01*
X167601637Y-49215891D01*
X167595680Y-49212686D01*
X167586502Y-49206327D01*
X167533329Y-49184998D01*
X167477606Y-49162646D01*
X167477600Y-49162644D01*
X167470350Y-49159736D01*
X167462735Y-49157998D01*
X167462732Y-49157997D01*
X167409931Y-49145946D01*
X167384007Y-49140029D01*
X167378472Y-49139405D01*
X167378464Y-49139404D01*
X167300542Y-49130624D01*
X167300534Y-49130624D01*
X167295000Y-49130000D01*
X157559058Y-49130000D01*
X157558506Y-49130008D01*
X157558464Y-49130008D01*
X157554579Y-49130063D01*
X157547841Y-49130157D01*
X157547206Y-49130175D01*
X157547148Y-49130176D01*
X157543305Y-49130284D01*
X157536684Y-49130470D01*
X157437169Y-49145946D01*
X157352067Y-49170463D01*
X157348928Y-49171601D01*
X157348922Y-49171603D01*
X157317021Y-49183169D01*
X157301473Y-49188806D01*
X157196261Y-49256573D01*
X157130224Y-49315587D01*
X157092600Y-49354064D01*
X157086761Y-49363592D01*
X157086759Y-49363595D01*
X157078963Y-49376318D01*
X157027211Y-49460770D01*
X156993319Y-49542592D01*
X156976116Y-49593581D01*
X156974990Y-49604697D01*
X156974928Y-49605305D01*
X156974733Y-49605884D01*
X156972624Y-49615624D01*
X156971527Y-49615386D01*
X156946616Y-49689221D01*
X156884698Y-49752542D01*
X156792557Y-49783627D01*
X156586023Y-49799882D01*
X156333422Y-49860526D01*
X156093419Y-49959939D01*
X156010329Y-50010857D01*
X155878584Y-50091589D01*
X155878579Y-50091592D01*
X155871922Y-50095672D01*
X155674385Y-50264385D01*
X155505672Y-50461922D01*
X155501592Y-50468579D01*
X155501589Y-50468584D01*
X155420857Y-50600329D01*
X155369939Y-50683419D01*
X155270526Y-50923422D01*
X155268704Y-50931010D01*
X155268701Y-50931020D01*
X155258052Y-50975380D01*
X155218734Y-51054737D01*
X155148877Y-51109176D01*
X155062319Y-51127913D01*
X154976203Y-51107240D01*
X154903557Y-51045898D01*
X154883829Y-51018746D01*
X154866829Y-51000643D01*
X154759615Y-50911947D01*
X154738640Y-50898635D01*
X154612730Y-50839387D01*
X154589112Y-50831713D01*
X154468787Y-50808759D01*
X154450179Y-50807000D01*
X154346423Y-50807000D01*
X154327453Y-50811330D01*
X154324000Y-50818500D01*
X154324000Y-51995500D01*
X154304293Y-52081843D01*
X154249074Y-52151084D01*
X154169282Y-52189511D01*
X154125000Y-52194500D01*
X152824320Y-52194500D01*
X152785725Y-52203309D01*
X152735247Y-52203760D01*
X152735247Y-52207000D01*
X150564898Y-52207000D01*
X150545928Y-52211330D01*
X150545234Y-52212770D01*
X150544663Y-52224324D01*
X150552009Y-52282476D01*
X150558185Y-52306530D01*
X150600634Y-52413744D01*
X150614095Y-52501278D01*
X150588244Y-52585984D01*
X150528200Y-52651086D01*
X150445855Y-52683688D01*
X150415608Y-52686000D01*
X145360000Y-52686000D01*
X145351227Y-52686493D01*
X145318005Y-52688358D01*
X145317988Y-52688359D01*
X145315218Y-52688515D01*
X145312463Y-52688825D01*
X145312444Y-52688827D01*
X145290402Y-52691311D01*
X145270936Y-52693504D01*
X145142160Y-52730604D01*
X145062368Y-52769031D01*
X145059471Y-52770675D01*
X145059461Y-52770680D01*
X145028332Y-52788343D01*
X145015571Y-52795584D01*
X144923196Y-52880017D01*
X144867977Y-52949258D01*
X144837327Y-52993498D01*
X144833166Y-53003871D01*
X144833164Y-53003875D01*
X144793646Y-53102394D01*
X144793644Y-53102400D01*
X144790736Y-53109650D01*
X144771029Y-53195993D01*
X144761000Y-53285000D01*
X144761000Y-54900000D01*
X144741293Y-54986343D01*
X144686074Y-55055584D01*
X144606282Y-55094011D01*
X144562000Y-55099000D01*
X143328000Y-55099000D01*
X143319227Y-55099493D01*
X143286005Y-55101358D01*
X143285988Y-55101359D01*
X143283218Y-55101515D01*
X143280463Y-55101825D01*
X143280444Y-55101827D01*
X143258402Y-55104311D01*
X143238936Y-55106504D01*
X143110160Y-55143604D01*
X143030368Y-55182031D01*
X143027471Y-55183675D01*
X143027461Y-55183680D01*
X142996332Y-55201343D01*
X142983571Y-55208584D01*
X142891196Y-55293017D01*
X142835977Y-55362258D01*
X142805327Y-55406498D01*
X142801166Y-55416871D01*
X142801164Y-55416875D01*
X142761646Y-55515394D01*
X142761644Y-55515400D01*
X142758736Y-55522650D01*
X142739029Y-55608993D01*
X142729000Y-55698000D01*
X142729000Y-59872000D01*
X142731515Y-59916782D01*
X142731825Y-59919537D01*
X142731827Y-59919556D01*
X142734311Y-59941598D01*
X142736504Y-59961064D01*
X142773604Y-60089840D01*
X142796642Y-60137677D01*
X142816349Y-60224017D01*
X142796643Y-60310360D01*
X142772935Y-60348092D01*
X142751540Y-60374920D01*
X142705352Y-60443665D01*
X142701340Y-60454094D01*
X142701339Y-60454097D01*
X142678138Y-60514416D01*
X142653443Y-60578618D01*
X142633736Y-60664961D01*
X142621000Y-60778000D01*
X141478000Y-60778000D01*
X141478000Y-51384974D01*
X150544955Y-51384974D01*
X150545628Y-51403704D01*
X150561367Y-51407000D01*
X151215577Y-51407000D01*
X151234547Y-51402670D01*
X151238000Y-51395500D01*
X151238000Y-50854423D01*
X151235507Y-50843500D01*
X152038000Y-50843500D01*
X152038000Y-51384577D01*
X152042330Y-51403547D01*
X152049500Y-51407000D01*
X152711101Y-51407000D01*
X152749310Y-51398279D01*
X152799369Y-51397830D01*
X152799369Y-51394500D01*
X153501577Y-51394500D01*
X153520547Y-51390170D01*
X153524000Y-51383000D01*
X153524000Y-50829423D01*
X153519670Y-50810453D01*
X153512500Y-50807000D01*
X153415668Y-50807000D01*
X153403225Y-50807783D01*
X153298525Y-50821009D01*
X153274473Y-50827185D01*
X153145089Y-50878411D01*
X153123323Y-50890377D01*
X153010747Y-50972169D01*
X152992646Y-50989168D01*
X152911547Y-51087198D01*
X152841325Y-51141164D01*
X152754642Y-51159317D01*
X152668667Y-51138062D01*
X152597222Y-51077319D01*
X152572831Y-51043747D01*
X152555829Y-51025643D01*
X152448615Y-50936947D01*
X152427640Y-50923635D01*
X152301730Y-50864387D01*
X152278112Y-50856713D01*
X152157787Y-50833759D01*
X152139179Y-50832000D01*
X152060423Y-50832000D01*
X152041453Y-50836330D01*
X152038000Y-50843500D01*
X151235507Y-50843500D01*
X151233670Y-50835453D01*
X151226500Y-50832000D01*
X151154668Y-50832000D01*
X151142225Y-50832783D01*
X151037525Y-50846009D01*
X151013473Y-50852185D01*
X150884089Y-50903411D01*
X150862323Y-50915377D01*
X150749747Y-50997169D01*
X150731643Y-51014171D01*
X150642947Y-51121385D01*
X150629635Y-51142360D01*
X150570387Y-51268270D01*
X150562713Y-51291888D01*
X150544955Y-51384974D01*
X141478000Y-51384974D01*
X141478000Y-48331270D01*
X141497707Y-48244927D01*
X141552926Y-48175686D01*
X141632718Y-48137259D01*
X141676267Y-48132271D01*
X175822269Y-48006734D01*
X175908683Y-48026124D01*
G37*
%TD.AperFunction*%
%TD*%
%TA.AperFunction,Conductor*%
%TO.N,/HS_in*%
G36*
X156605343Y-53105707D02*
G01*
X156674584Y-53160926D01*
X156713011Y-53240718D01*
X156718000Y-53285000D01*
X156718000Y-55789500D01*
X156698293Y-55875843D01*
X156643074Y-55945084D01*
X156563282Y-55983511D01*
X156519000Y-55988500D01*
X156353576Y-55988500D01*
X156336620Y-55987776D01*
X156317234Y-55986118D01*
X156317230Y-55986118D01*
X156312110Y-55985680D01*
X156306976Y-55985772D01*
X156306972Y-55985772D01*
X156233436Y-55987092D01*
X156233435Y-55987092D01*
X156230540Y-55987144D01*
X156212806Y-55988500D01*
X156194713Y-55989883D01*
X156194709Y-55989884D01*
X156184020Y-55990701D01*
X156173752Y-55993784D01*
X156173749Y-55993785D01*
X156071642Y-56024448D01*
X156071640Y-56024449D01*
X156064160Y-56026695D01*
X156057124Y-56030083D01*
X156057120Y-56030085D01*
X156005766Y-56054817D01*
X155984368Y-56065122D01*
X155981471Y-56066766D01*
X155981461Y-56066771D01*
X155950332Y-56084434D01*
X155937571Y-56091675D01*
X155845196Y-56176108D01*
X155789977Y-56245349D01*
X155759327Y-56289589D01*
X155755166Y-56299962D01*
X155755164Y-56299966D01*
X155715646Y-56398485D01*
X155715644Y-56398491D01*
X155712736Y-56405741D01*
X155693029Y-56492084D01*
X155683000Y-56581091D01*
X155683000Y-57840000D01*
X155685515Y-57884782D01*
X155685825Y-57887537D01*
X155685827Y-57887556D01*
X155685946Y-57888609D01*
X155690504Y-57929064D01*
X155727604Y-58057840D01*
X155731238Y-58065385D01*
X155731238Y-58065386D01*
X155731871Y-58066700D01*
X155766031Y-58137632D01*
X155792584Y-58184429D01*
X155877017Y-58276804D01*
X155946258Y-58332023D01*
X155990498Y-58362673D01*
X156000871Y-58366834D01*
X156000875Y-58366836D01*
X156099394Y-58406354D01*
X156099400Y-58406356D01*
X156106650Y-58409264D01*
X156114265Y-58411002D01*
X156114268Y-58411003D01*
X156144605Y-58417927D01*
X156192993Y-58428971D01*
X156198528Y-58429595D01*
X156198536Y-58429596D01*
X156276458Y-58438376D01*
X156276466Y-58438376D01*
X156282000Y-58439000D01*
X156426500Y-58439000D01*
X156512843Y-58458707D01*
X156582084Y-58513926D01*
X156620511Y-58593718D01*
X156625500Y-58638000D01*
X156625500Y-59612837D01*
X156605793Y-59699180D01*
X156567214Y-59753551D01*
X156557551Y-59763214D01*
X156482563Y-59810333D01*
X156416837Y-59821500D01*
X154844086Y-59821500D01*
X154837077Y-59822504D01*
X154837073Y-59822504D01*
X154751157Y-59834808D01*
X154751156Y-59834808D01*
X154737123Y-59836818D01*
X154724217Y-59842686D01*
X154619556Y-59890272D01*
X154619554Y-59890274D01*
X154606651Y-59896140D01*
X154582695Y-59916782D01*
X154508814Y-59980442D01*
X154508811Y-59980445D01*
X154498074Y-59989697D01*
X154490362Y-60001595D01*
X154489296Y-60002817D01*
X154417686Y-60054927D01*
X154339336Y-60071000D01*
X151728520Y-60071000D01*
X151642177Y-60051293D01*
X151572936Y-59996074D01*
X151534509Y-59916282D01*
X151529520Y-59872000D01*
X151529520Y-57064080D01*
X151548460Y-56979349D01*
X151574087Y-56924890D01*
X151574087Y-56924889D01*
X151579418Y-56913561D01*
X151606500Y-56771592D01*
X151606500Y-55771421D01*
X151590906Y-55647984D01*
X151530419Y-55495210D01*
X151433839Y-55362279D01*
X151307234Y-55257543D01*
X151295910Y-55252214D01*
X151295908Y-55252213D01*
X151169890Y-55192913D01*
X151169889Y-55192913D01*
X151158561Y-55187582D01*
X151091558Y-55174800D01*
X151025814Y-55162259D01*
X151025812Y-55162259D01*
X151016592Y-55160500D01*
X150998172Y-55160500D01*
X150911827Y-55140792D01*
X150876000Y-55123538D01*
X150876000Y-55118000D01*
X149563643Y-55118000D01*
X149519361Y-55113010D01*
X149507368Y-55110273D01*
X149507362Y-55110272D01*
X149501916Y-55109029D01*
X149496381Y-55108405D01*
X149496373Y-55108404D01*
X149418451Y-55099624D01*
X149418443Y-55099624D01*
X149412909Y-55099000D01*
X145360000Y-55099000D01*
X145273657Y-55079293D01*
X145204416Y-55024074D01*
X145165989Y-54944282D01*
X145161000Y-54900000D01*
X145161000Y-53285000D01*
X145180707Y-53198657D01*
X145235926Y-53129416D01*
X145315718Y-53090989D01*
X145360000Y-53086000D01*
X156519000Y-53086000D01*
X156605343Y-53105707D01*
G37*
%TD.AperFunction*%
%TD*%
M02*
