%TF.GenerationSoftware,KiCad,Pcbnew,(5.99.0-8944-g488cfb9ec7)*%
%TF.CreationDate,2021-08-16T17:53:59+02:00*%
%TF.ProjectId,pwr_switch,7077725f-7377-4697-9463-682e6b696361,rev?*%
%TF.SameCoordinates,Original*%
%TF.FileFunction,Copper,L2,Bot*%
%TF.FilePolarity,Positive*%
%FSLAX46Y46*%
G04 Gerber Fmt 4.6, Leading zero omitted, Abs format (unit mm)*
G04 Created by KiCad (PCBNEW (5.99.0-8944-g488cfb9ec7)) date 2021-08-16 17:53:59*
%MOMM*%
%LPD*%
G01*
G04 APERTURE LIST*
%TA.AperFunction,Profile*%
%ADD10C,0.100000*%
%TD*%
%TA.AperFunction,EtchedComponent*%
%ADD11C,0.120000*%
%TD*%
%TA.AperFunction,ComponentPad*%
%ADD12O,3.000000X2.000000*%
%TD*%
%TA.AperFunction,SMDPad,CuDef*%
%ADD13R,2.510000X1.000000*%
%TD*%
G04 APERTURE END LIST*
D10*
X91440000Y-43180000D02*
X139700000Y-43180000D01*
X139700000Y-43180000D02*
X139700000Y-52070000D01*
X139700000Y-52070000D02*
X91440000Y-52070000D01*
X91440000Y-52070000D02*
X91440000Y-43180000D01*
D11*
%TO.C,SW1*%
X126384600Y-47525200D02*
G75*
G03*
X126384600Y-47525200I-900000J0D01*
G01*
X106684600Y-47525200D02*
G75*
G03*
X106684600Y-47525200I-900000J0D01*
G01*
%TD*%
D12*
%TO.P,SW1,6,C*%
%TO.N,Net-(J2-Pad1)*%
X120034600Y-48795200D03*
%TO.P,SW1,5,B*%
%TO.N,Net-(J1-Pad1)*%
X115634600Y-48795200D03*
%TO.P,SW1,4,A*%
X111234600Y-48795200D03*
%TO.P,SW1,3,C*%
%TO.N,Net-(J2-Pad2)*%
X120034600Y-46255200D03*
%TO.P,SW1,2,B*%
%TO.N,Net-(J1-Pad2)*%
X115634600Y-46255200D03*
%TO.P,SW1,1,A*%
X111234600Y-46255200D03*
%TD*%
D13*
%TO.P,J2,1,Pin_1*%
%TO.N,Net-(J2-Pad1)*%
X136275000Y-48795200D03*
%TO.P,J2,2,Pin_2*%
%TO.N,Net-(J2-Pad2)*%
X132965000Y-46255200D03*
%TD*%
%TO.P,J1,1,Pin_1*%
%TO.N,Net-(J1-Pad1)*%
X98292819Y-48795200D03*
%TO.P,J1,2,Pin_2*%
%TO.N,Net-(J1-Pad2)*%
X94982819Y-46255200D03*
%TD*%
%TA.AperFunction,Conductor*%
%TO.N,Net-(J1-Pad2)*%
G36*
X117400500Y-43599962D02*
G01*
X117455038Y-43654500D01*
X117475000Y-43729000D01*
X117475000Y-45264772D01*
X117455038Y-45339272D01*
X117400500Y-45393810D01*
X117326000Y-45413772D01*
X117251500Y-45393810D01*
X117213463Y-45362427D01*
X117118250Y-45252704D01*
X117109239Y-45243941D01*
X116935282Y-45101305D01*
X116924917Y-45094181D01*
X116729415Y-44982895D01*
X116717998Y-44977620D01*
X116506537Y-44900863D01*
X116494401Y-44897588D01*
X116271649Y-44857308D01*
X116261925Y-44856204D01*
X116242380Y-44855282D01*
X116238874Y-44855200D01*
X116054216Y-44855200D01*
X116038745Y-44859345D01*
X116034600Y-44874816D01*
X116034600Y-46506200D01*
X116014638Y-46580700D01*
X115960100Y-46635238D01*
X115885600Y-46655200D01*
X113807690Y-46655200D01*
X113792219Y-46659345D01*
X113790954Y-46664067D01*
X113791179Y-46664817D01*
X113839144Y-46786270D01*
X113847943Y-46862894D01*
X113817250Y-46933652D01*
X113755290Y-46979584D01*
X113700560Y-46990000D01*
X113173384Y-46990000D01*
X113098884Y-46970038D01*
X113044346Y-46915500D01*
X113024384Y-46841000D01*
X113035332Y-46784941D01*
X113038244Y-46777771D01*
X113070486Y-46673933D01*
X113071115Y-46657930D01*
X113067334Y-46655544D01*
X113065067Y-46655200D01*
X109407690Y-46655200D01*
X109392219Y-46659345D01*
X109390954Y-46664067D01*
X109391179Y-46664817D01*
X109439144Y-46786270D01*
X109447943Y-46862894D01*
X109417250Y-46933652D01*
X109355290Y-46979584D01*
X109300560Y-46990000D01*
X107064384Y-46990000D01*
X106989884Y-46970038D01*
X106935346Y-46915500D01*
X106929353Y-46903987D01*
X106914763Y-46872700D01*
X106892567Y-46841000D01*
X106788017Y-46691688D01*
X106784288Y-46686362D01*
X106623438Y-46525512D01*
X106552468Y-46475819D01*
X106442432Y-46398770D01*
X106442428Y-46398768D01*
X106437100Y-46395037D01*
X106230936Y-46298901D01*
X106224655Y-46297218D01*
X106017490Y-46241708D01*
X106017485Y-46241707D01*
X106011211Y-46240026D01*
X106004740Y-46239460D01*
X106004735Y-46239459D01*
X105791081Y-46220767D01*
X105784600Y-46220200D01*
X105778119Y-46220767D01*
X105564465Y-46239459D01*
X105564460Y-46239460D01*
X105557989Y-46240026D01*
X105551715Y-46241707D01*
X105551710Y-46241708D01*
X105344545Y-46297218D01*
X105338264Y-46298901D01*
X105132100Y-46395037D01*
X105126772Y-46398768D01*
X105126768Y-46398770D01*
X105016732Y-46475819D01*
X104945762Y-46525512D01*
X104784912Y-46686362D01*
X104781183Y-46691688D01*
X104676634Y-46841000D01*
X104654437Y-46872700D01*
X104639855Y-46903972D01*
X104590280Y-46963053D01*
X104517804Y-46989433D01*
X104504816Y-46990000D01*
X96780087Y-46990000D01*
X96705587Y-46970038D01*
X96651049Y-46915500D01*
X96631087Y-46841000D01*
X96632922Y-46817690D01*
X96641903Y-46760990D01*
X96642819Y-46749346D01*
X96642819Y-46674816D01*
X96638674Y-46659345D01*
X96623203Y-46655200D01*
X93342435Y-46655200D01*
X93326964Y-46659345D01*
X93322819Y-46674816D01*
X93322819Y-46749346D01*
X93323735Y-46760990D01*
X93332716Y-46817690D01*
X93324655Y-46894396D01*
X93279320Y-46956794D01*
X93208861Y-46988165D01*
X93185551Y-46990000D01*
X91989000Y-46990000D01*
X91914500Y-46970038D01*
X91859962Y-46915500D01*
X91840000Y-46841000D01*
X91840000Y-45761054D01*
X93322819Y-45761054D01*
X93322819Y-45835584D01*
X93326964Y-45851055D01*
X93342435Y-45855200D01*
X94563203Y-45855200D01*
X94578674Y-45851055D01*
X94582819Y-45835584D01*
X94582819Y-45369816D01*
X95382819Y-45369816D01*
X95382819Y-45835584D01*
X95386964Y-45851055D01*
X95402435Y-45855200D01*
X96623203Y-45855200D01*
X96633393Y-45852470D01*
X109398085Y-45852470D01*
X109401866Y-45854856D01*
X109404133Y-45855200D01*
X110814984Y-45855200D01*
X110830455Y-45851055D01*
X110834600Y-45835584D01*
X110834600Y-44874816D01*
X111634600Y-44874816D01*
X111634600Y-45835584D01*
X111638745Y-45851055D01*
X111654216Y-45855200D01*
X113061510Y-45855200D01*
X113071700Y-45852470D01*
X113798085Y-45852470D01*
X113801866Y-45854856D01*
X113804133Y-45855200D01*
X115214984Y-45855200D01*
X115230455Y-45851055D01*
X115234600Y-45835584D01*
X115234600Y-44874816D01*
X115230455Y-44859345D01*
X115214984Y-44855200D01*
X115078823Y-44855200D01*
X115072531Y-44855467D01*
X114904167Y-44869753D01*
X114891757Y-44871874D01*
X114674026Y-44928386D01*
X114662162Y-44932563D01*
X114457056Y-45024957D01*
X114446059Y-45031078D01*
X114259455Y-45156707D01*
X114249657Y-45164585D01*
X114086885Y-45319861D01*
X114078549Y-45329284D01*
X113944268Y-45509764D01*
X113937642Y-45520450D01*
X113835686Y-45720981D01*
X113830956Y-45732630D01*
X113798714Y-45836467D01*
X113798085Y-45852470D01*
X113071700Y-45852470D01*
X113076981Y-45851055D01*
X113078246Y-45846333D01*
X113078021Y-45845582D01*
X112995394Y-45636361D01*
X112989800Y-45625092D01*
X112873097Y-45432770D01*
X112865694Y-45422618D01*
X112718250Y-45252704D01*
X112709239Y-45243941D01*
X112535282Y-45101305D01*
X112524917Y-45094181D01*
X112329415Y-44982895D01*
X112317998Y-44977620D01*
X112106537Y-44900863D01*
X112094401Y-44897588D01*
X111871649Y-44857308D01*
X111861925Y-44856204D01*
X111842380Y-44855282D01*
X111838874Y-44855200D01*
X111654216Y-44855200D01*
X111638745Y-44859345D01*
X111634600Y-44874816D01*
X110834600Y-44874816D01*
X110830455Y-44859345D01*
X110814984Y-44855200D01*
X110678823Y-44855200D01*
X110672531Y-44855467D01*
X110504167Y-44869753D01*
X110491757Y-44871874D01*
X110274026Y-44928386D01*
X110262162Y-44932563D01*
X110057056Y-45024957D01*
X110046059Y-45031078D01*
X109859455Y-45156707D01*
X109849657Y-45164585D01*
X109686885Y-45319861D01*
X109678549Y-45329284D01*
X109544268Y-45509764D01*
X109537642Y-45520450D01*
X109435686Y-45720981D01*
X109430956Y-45732630D01*
X109398714Y-45836467D01*
X109398085Y-45852470D01*
X96633393Y-45852470D01*
X96638674Y-45851055D01*
X96642819Y-45835584D01*
X96642819Y-45761054D01*
X96641904Y-45749420D01*
X96624831Y-45641628D01*
X96617674Y-45619601D01*
X96570793Y-45527592D01*
X96557182Y-45508858D01*
X96484161Y-45435837D01*
X96465427Y-45422226D01*
X96373418Y-45375345D01*
X96351391Y-45368188D01*
X96243599Y-45351115D01*
X96231965Y-45350200D01*
X95402435Y-45350200D01*
X95386964Y-45354345D01*
X95382819Y-45369816D01*
X94582819Y-45369816D01*
X94578674Y-45354345D01*
X94563203Y-45350200D01*
X93733673Y-45350200D01*
X93722039Y-45351115D01*
X93614247Y-45368188D01*
X93592220Y-45375345D01*
X93500211Y-45422226D01*
X93481477Y-45435837D01*
X93408456Y-45508858D01*
X93394845Y-45527592D01*
X93347964Y-45619601D01*
X93340807Y-45641628D01*
X93323734Y-45749420D01*
X93322819Y-45761054D01*
X91840000Y-45761054D01*
X91840000Y-43729000D01*
X91859962Y-43654500D01*
X91914500Y-43599962D01*
X91989000Y-43580000D01*
X117326000Y-43580000D01*
X117400500Y-43599962D01*
G37*
%TD.AperFunction*%
%TD*%
%TA.AperFunction,Conductor*%
%TO.N,Net-(J1-Pad1)*%
G36*
X96562017Y-48279962D02*
G01*
X96616555Y-48334500D01*
X96631440Y-48370437D01*
X96636964Y-48391055D01*
X96652435Y-48395200D01*
X99933203Y-48395200D01*
X99948674Y-48391055D01*
X99954198Y-48370437D01*
X99992761Y-48303642D01*
X100059556Y-48265077D01*
X100098121Y-48260000D01*
X104634499Y-48260000D01*
X104708999Y-48279962D01*
X104756553Y-48323537D01*
X104784912Y-48364038D01*
X104945762Y-48524888D01*
X105016732Y-48574581D01*
X105126768Y-48651630D01*
X105126772Y-48651632D01*
X105132100Y-48655363D01*
X105338264Y-48751499D01*
X105344545Y-48753182D01*
X105551710Y-48808692D01*
X105551715Y-48808693D01*
X105557989Y-48810374D01*
X105564460Y-48810940D01*
X105564465Y-48810941D01*
X105778119Y-48829633D01*
X105784600Y-48830200D01*
X105791081Y-48829633D01*
X106004735Y-48810941D01*
X106004740Y-48810940D01*
X106011211Y-48810374D01*
X106017485Y-48808693D01*
X106017490Y-48808692D01*
X106224655Y-48753182D01*
X106230936Y-48751499D01*
X106437100Y-48655363D01*
X106442428Y-48651632D01*
X106442432Y-48651630D01*
X106552468Y-48574581D01*
X106623438Y-48524888D01*
X106784288Y-48364038D01*
X106812647Y-48323537D01*
X106871731Y-48273960D01*
X106934701Y-48260000D01*
X109248321Y-48260000D01*
X109322821Y-48279962D01*
X109377359Y-48334500D01*
X109386793Y-48372694D01*
X109396757Y-48391632D01*
X109401866Y-48394856D01*
X109404133Y-48395200D01*
X113061510Y-48395200D01*
X113076981Y-48391055D01*
X113082505Y-48370437D01*
X113121068Y-48303642D01*
X113187863Y-48265077D01*
X113226428Y-48260000D01*
X113648321Y-48260000D01*
X113722821Y-48279962D01*
X113777359Y-48334500D01*
X113786793Y-48372694D01*
X113796757Y-48391632D01*
X113801866Y-48394856D01*
X113804133Y-48395200D01*
X115885600Y-48395200D01*
X115960100Y-48415162D01*
X116014638Y-48469700D01*
X116034600Y-48544200D01*
X116034600Y-50175584D01*
X116038745Y-50191055D01*
X116054216Y-50195200D01*
X116190377Y-50195200D01*
X116196669Y-50194933D01*
X116365033Y-50180647D01*
X116377443Y-50178526D01*
X116595174Y-50122014D01*
X116607038Y-50117837D01*
X116812144Y-50025443D01*
X116823141Y-50019322D01*
X117009745Y-49893693D01*
X117019543Y-49885815D01*
X117182315Y-49730539D01*
X117190649Y-49721118D01*
X117206457Y-49699872D01*
X117266944Y-49652016D01*
X117343254Y-49640815D01*
X117414941Y-49669270D01*
X117462797Y-49729757D01*
X117475000Y-49788813D01*
X117475000Y-51521000D01*
X117455038Y-51595500D01*
X117400500Y-51650038D01*
X117326000Y-51670000D01*
X91989000Y-51670000D01*
X91914500Y-51650038D01*
X91859962Y-51595500D01*
X91840000Y-51521000D01*
X91840000Y-49214816D01*
X96632819Y-49214816D01*
X96632819Y-49289346D01*
X96633734Y-49300980D01*
X96650807Y-49408772D01*
X96657964Y-49430799D01*
X96704845Y-49522808D01*
X96718456Y-49541542D01*
X96791477Y-49614563D01*
X96810211Y-49628174D01*
X96902220Y-49675055D01*
X96924247Y-49682212D01*
X97032039Y-49699285D01*
X97043673Y-49700200D01*
X97873203Y-49700200D01*
X97888674Y-49696055D01*
X97892819Y-49680584D01*
X97892819Y-49214816D01*
X98692819Y-49214816D01*
X98692819Y-49680584D01*
X98696964Y-49696055D01*
X98712435Y-49700200D01*
X99541965Y-49700200D01*
X99553599Y-49699285D01*
X99661391Y-49682212D01*
X99683418Y-49675055D01*
X99775427Y-49628174D01*
X99794161Y-49614563D01*
X99867182Y-49541542D01*
X99880793Y-49522808D01*
X99927674Y-49430799D01*
X99934831Y-49408772D01*
X99951904Y-49300980D01*
X99952819Y-49289346D01*
X99952819Y-49214816D01*
X99949939Y-49204067D01*
X109390954Y-49204067D01*
X109391179Y-49204818D01*
X109473806Y-49414039D01*
X109479400Y-49425308D01*
X109596103Y-49617630D01*
X109603506Y-49627782D01*
X109750950Y-49797696D01*
X109759961Y-49806459D01*
X109933918Y-49949095D01*
X109944283Y-49956219D01*
X110139785Y-50067505D01*
X110151202Y-50072780D01*
X110362663Y-50149537D01*
X110374799Y-50152812D01*
X110597551Y-50193092D01*
X110607275Y-50194196D01*
X110626820Y-50195118D01*
X110630326Y-50195200D01*
X110814984Y-50195200D01*
X110830455Y-50191055D01*
X110834600Y-50175584D01*
X110834600Y-49214816D01*
X111634600Y-49214816D01*
X111634600Y-50175584D01*
X111638745Y-50191055D01*
X111654216Y-50195200D01*
X111790377Y-50195200D01*
X111796669Y-50194933D01*
X111965033Y-50180647D01*
X111977443Y-50178526D01*
X112195174Y-50122014D01*
X112207038Y-50117837D01*
X112412144Y-50025443D01*
X112423141Y-50019322D01*
X112609745Y-49893693D01*
X112619543Y-49885815D01*
X112782315Y-49730539D01*
X112790651Y-49721116D01*
X112924932Y-49540636D01*
X112931558Y-49529950D01*
X113033514Y-49329419D01*
X113038244Y-49317770D01*
X113070486Y-49213933D01*
X113070874Y-49204067D01*
X113790954Y-49204067D01*
X113791179Y-49204818D01*
X113873806Y-49414039D01*
X113879400Y-49425308D01*
X113996103Y-49617630D01*
X114003506Y-49627782D01*
X114150950Y-49797696D01*
X114159961Y-49806459D01*
X114333918Y-49949095D01*
X114344283Y-49956219D01*
X114539785Y-50067505D01*
X114551202Y-50072780D01*
X114762663Y-50149537D01*
X114774799Y-50152812D01*
X114997551Y-50193092D01*
X115007275Y-50194196D01*
X115026820Y-50195118D01*
X115030326Y-50195200D01*
X115214984Y-50195200D01*
X115230455Y-50191055D01*
X115234600Y-50175584D01*
X115234600Y-49214816D01*
X115230455Y-49199345D01*
X115214984Y-49195200D01*
X113807690Y-49195200D01*
X113792219Y-49199345D01*
X113790954Y-49204067D01*
X113070874Y-49204067D01*
X113071115Y-49197930D01*
X113067334Y-49195544D01*
X113065067Y-49195200D01*
X111654216Y-49195200D01*
X111638745Y-49199345D01*
X111634600Y-49214816D01*
X110834600Y-49214816D01*
X110830455Y-49199345D01*
X110814984Y-49195200D01*
X109407690Y-49195200D01*
X109392219Y-49199345D01*
X109390954Y-49204067D01*
X99949939Y-49204067D01*
X99948674Y-49199345D01*
X99933203Y-49195200D01*
X98712435Y-49195200D01*
X98696964Y-49199345D01*
X98692819Y-49214816D01*
X97892819Y-49214816D01*
X97888674Y-49199345D01*
X97873203Y-49195200D01*
X96652435Y-49195200D01*
X96636964Y-49199345D01*
X96632819Y-49214816D01*
X91840000Y-49214816D01*
X91840000Y-48409000D01*
X91859962Y-48334500D01*
X91914500Y-48279962D01*
X91989000Y-48260000D01*
X96487517Y-48260000D01*
X96562017Y-48279962D01*
G37*
%TD.AperFunction*%
%TD*%
%TA.AperFunction,Conductor*%
%TO.N,Net-(J2-Pad2)*%
G36*
X139225500Y-43599962D02*
G01*
X139280038Y-43654500D01*
X139300000Y-43729000D01*
X139300000Y-46841000D01*
X139280038Y-46915500D01*
X139225500Y-46970038D01*
X139151000Y-46990000D01*
X134762268Y-46990000D01*
X134687768Y-46970038D01*
X134633230Y-46915500D01*
X134613268Y-46841000D01*
X134615103Y-46817690D01*
X134624084Y-46760990D01*
X134625000Y-46749346D01*
X134625000Y-46674816D01*
X134620855Y-46659345D01*
X134605384Y-46655200D01*
X131324616Y-46655200D01*
X131309145Y-46659345D01*
X131305000Y-46674816D01*
X131305000Y-46749346D01*
X131305916Y-46760990D01*
X131314897Y-46817690D01*
X131306836Y-46894396D01*
X131261501Y-46956794D01*
X131191042Y-46988165D01*
X131167732Y-46990000D01*
X126764384Y-46990000D01*
X126689884Y-46970038D01*
X126635346Y-46915500D01*
X126629353Y-46903987D01*
X126614763Y-46872700D01*
X126592567Y-46841000D01*
X126488017Y-46691688D01*
X126484288Y-46686362D01*
X126323438Y-46525512D01*
X126252468Y-46475819D01*
X126142432Y-46398770D01*
X126142428Y-46398768D01*
X126137100Y-46395037D01*
X125930936Y-46298901D01*
X125924655Y-46297218D01*
X125717490Y-46241708D01*
X125717485Y-46241707D01*
X125711211Y-46240026D01*
X125704740Y-46239460D01*
X125704735Y-46239459D01*
X125491081Y-46220767D01*
X125484600Y-46220200D01*
X125478119Y-46220767D01*
X125264465Y-46239459D01*
X125264460Y-46239460D01*
X125257989Y-46240026D01*
X125251715Y-46241707D01*
X125251710Y-46241708D01*
X125044545Y-46297218D01*
X125038264Y-46298901D01*
X124832100Y-46395037D01*
X124826772Y-46398768D01*
X124826768Y-46398770D01*
X124716732Y-46475819D01*
X124645762Y-46525512D01*
X124484912Y-46686362D01*
X124481183Y-46691688D01*
X124376634Y-46841000D01*
X124354437Y-46872700D01*
X124339855Y-46903972D01*
X124290280Y-46963053D01*
X124217804Y-46989433D01*
X124204816Y-46990000D01*
X121973384Y-46990000D01*
X121898884Y-46970038D01*
X121844346Y-46915500D01*
X121824384Y-46841000D01*
X121835332Y-46784941D01*
X121838244Y-46777771D01*
X121870486Y-46673933D01*
X121871115Y-46657930D01*
X121867334Y-46655544D01*
X121865067Y-46655200D01*
X119783600Y-46655200D01*
X119709100Y-46635238D01*
X119654562Y-46580700D01*
X119634600Y-46506200D01*
X119634600Y-44874816D01*
X120434600Y-44874816D01*
X120434600Y-45835584D01*
X120438745Y-45851055D01*
X120454216Y-45855200D01*
X121861510Y-45855200D01*
X121876981Y-45851055D01*
X121878246Y-45846333D01*
X121878021Y-45845582D01*
X121844639Y-45761054D01*
X131305000Y-45761054D01*
X131305000Y-45835584D01*
X131309145Y-45851055D01*
X131324616Y-45855200D01*
X132545384Y-45855200D01*
X132560855Y-45851055D01*
X132565000Y-45835584D01*
X132565000Y-45369816D01*
X133365000Y-45369816D01*
X133365000Y-45835584D01*
X133369145Y-45851055D01*
X133384616Y-45855200D01*
X134605384Y-45855200D01*
X134620855Y-45851055D01*
X134625000Y-45835584D01*
X134625000Y-45761054D01*
X134624085Y-45749420D01*
X134607012Y-45641628D01*
X134599855Y-45619601D01*
X134552974Y-45527592D01*
X134539363Y-45508858D01*
X134466342Y-45435837D01*
X134447608Y-45422226D01*
X134355599Y-45375345D01*
X134333572Y-45368188D01*
X134225780Y-45351115D01*
X134214146Y-45350200D01*
X133384616Y-45350200D01*
X133369145Y-45354345D01*
X133365000Y-45369816D01*
X132565000Y-45369816D01*
X132560855Y-45354345D01*
X132545384Y-45350200D01*
X131715854Y-45350200D01*
X131704220Y-45351115D01*
X131596428Y-45368188D01*
X131574401Y-45375345D01*
X131482392Y-45422226D01*
X131463658Y-45435837D01*
X131390637Y-45508858D01*
X131377026Y-45527592D01*
X131330145Y-45619601D01*
X131322988Y-45641628D01*
X131305915Y-45749420D01*
X131305000Y-45761054D01*
X121844639Y-45761054D01*
X121795394Y-45636361D01*
X121789800Y-45625092D01*
X121673097Y-45432770D01*
X121665694Y-45422618D01*
X121518250Y-45252704D01*
X121509239Y-45243941D01*
X121335282Y-45101305D01*
X121324917Y-45094181D01*
X121129415Y-44982895D01*
X121117998Y-44977620D01*
X120906537Y-44900863D01*
X120894401Y-44897588D01*
X120671649Y-44857308D01*
X120661925Y-44856204D01*
X120642380Y-44855282D01*
X120638874Y-44855200D01*
X120454216Y-44855200D01*
X120438745Y-44859345D01*
X120434600Y-44874816D01*
X119634600Y-44874816D01*
X119630455Y-44859345D01*
X119614984Y-44855200D01*
X119478823Y-44855200D01*
X119472531Y-44855467D01*
X119304167Y-44869753D01*
X119291757Y-44871874D01*
X119074026Y-44928386D01*
X119062162Y-44932563D01*
X118857056Y-45024957D01*
X118846059Y-45031078D01*
X118659455Y-45156707D01*
X118649657Y-45164585D01*
X118486885Y-45319861D01*
X118478549Y-45329284D01*
X118378542Y-45463698D01*
X118318056Y-45511553D01*
X118241745Y-45522754D01*
X118170058Y-45494298D01*
X118122203Y-45433812D01*
X118110000Y-45374756D01*
X118110000Y-43729000D01*
X118129962Y-43654500D01*
X118184500Y-43599962D01*
X118259000Y-43580000D01*
X139151000Y-43580000D01*
X139225500Y-43599962D01*
G37*
%TD.AperFunction*%
%TD*%
%TA.AperFunction,Conductor*%
%TO.N,Net-(J2-Pad1)*%
G36*
X124408999Y-48279962D02*
G01*
X124456553Y-48323537D01*
X124484912Y-48364038D01*
X124645762Y-48524888D01*
X124716732Y-48574581D01*
X124826768Y-48651630D01*
X124826772Y-48651632D01*
X124832100Y-48655363D01*
X125038264Y-48751499D01*
X125044545Y-48753182D01*
X125251710Y-48808692D01*
X125251715Y-48808693D01*
X125257989Y-48810374D01*
X125264460Y-48810940D01*
X125264465Y-48810941D01*
X125478119Y-48829633D01*
X125484600Y-48830200D01*
X125491081Y-48829633D01*
X125704735Y-48810941D01*
X125704740Y-48810940D01*
X125711211Y-48810374D01*
X125717485Y-48808693D01*
X125717490Y-48808692D01*
X125924655Y-48753182D01*
X125930936Y-48751499D01*
X126137100Y-48655363D01*
X126142428Y-48651632D01*
X126142432Y-48651630D01*
X126252468Y-48574581D01*
X126323438Y-48524888D01*
X126484288Y-48364038D01*
X126512647Y-48323537D01*
X126571731Y-48273960D01*
X126634701Y-48260000D01*
X134469698Y-48260000D01*
X134544198Y-48279962D01*
X134598736Y-48334500D01*
X134613621Y-48370437D01*
X134619145Y-48391055D01*
X134634616Y-48395200D01*
X137915384Y-48395200D01*
X137930855Y-48391055D01*
X137936379Y-48370437D01*
X137974942Y-48303642D01*
X138041737Y-48265077D01*
X138080302Y-48260000D01*
X139151000Y-48260000D01*
X139225500Y-48279962D01*
X139280038Y-48334500D01*
X139300000Y-48409000D01*
X139300000Y-51521000D01*
X139280038Y-51595500D01*
X139225500Y-51650038D01*
X139151000Y-51670000D01*
X118259000Y-51670000D01*
X118184500Y-51650038D01*
X118129962Y-51595500D01*
X118110000Y-51521000D01*
X118110000Y-49678908D01*
X118129962Y-49604408D01*
X118184500Y-49549870D01*
X118259000Y-49529908D01*
X118333500Y-49549870D01*
X118386382Y-49601610D01*
X118396106Y-49617635D01*
X118403506Y-49627782D01*
X118550950Y-49797696D01*
X118559961Y-49806459D01*
X118733918Y-49949095D01*
X118744283Y-49956219D01*
X118939785Y-50067505D01*
X118951202Y-50072780D01*
X119162663Y-50149537D01*
X119174799Y-50152812D01*
X119397551Y-50193092D01*
X119407275Y-50194196D01*
X119426820Y-50195118D01*
X119430326Y-50195200D01*
X119614984Y-50195200D01*
X119630455Y-50191055D01*
X119634600Y-50175584D01*
X119634600Y-49214816D01*
X120434600Y-49214816D01*
X120434600Y-50175584D01*
X120438745Y-50191055D01*
X120454216Y-50195200D01*
X120590377Y-50195200D01*
X120596669Y-50194933D01*
X120765033Y-50180647D01*
X120777443Y-50178526D01*
X120995174Y-50122014D01*
X121007038Y-50117837D01*
X121212144Y-50025443D01*
X121223141Y-50019322D01*
X121409745Y-49893693D01*
X121419543Y-49885815D01*
X121582315Y-49730539D01*
X121590651Y-49721116D01*
X121724932Y-49540636D01*
X121731558Y-49529950D01*
X121833514Y-49329419D01*
X121838244Y-49317770D01*
X121870212Y-49214816D01*
X134615000Y-49214816D01*
X134615000Y-49289346D01*
X134615915Y-49300980D01*
X134632988Y-49408772D01*
X134640145Y-49430799D01*
X134687026Y-49522808D01*
X134700637Y-49541542D01*
X134773658Y-49614563D01*
X134792392Y-49628174D01*
X134884401Y-49675055D01*
X134906428Y-49682212D01*
X135014220Y-49699285D01*
X135025854Y-49700200D01*
X135855384Y-49700200D01*
X135870855Y-49696055D01*
X135875000Y-49680584D01*
X135875000Y-49214816D01*
X136675000Y-49214816D01*
X136675000Y-49680584D01*
X136679145Y-49696055D01*
X136694616Y-49700200D01*
X137524146Y-49700200D01*
X137535780Y-49699285D01*
X137643572Y-49682212D01*
X137665599Y-49675055D01*
X137757608Y-49628174D01*
X137776342Y-49614563D01*
X137849363Y-49541542D01*
X137862974Y-49522808D01*
X137909855Y-49430799D01*
X137917012Y-49408772D01*
X137934085Y-49300980D01*
X137935000Y-49289346D01*
X137935000Y-49214816D01*
X137930855Y-49199345D01*
X137915384Y-49195200D01*
X136694616Y-49195200D01*
X136679145Y-49199345D01*
X136675000Y-49214816D01*
X135875000Y-49214816D01*
X135870855Y-49199345D01*
X135855384Y-49195200D01*
X134634616Y-49195200D01*
X134619145Y-49199345D01*
X134615000Y-49214816D01*
X121870212Y-49214816D01*
X121870486Y-49213933D01*
X121871115Y-49197930D01*
X121867334Y-49195544D01*
X121865067Y-49195200D01*
X120454216Y-49195200D01*
X120438745Y-49199345D01*
X120434600Y-49214816D01*
X119634600Y-49214816D01*
X119634600Y-48544200D01*
X119654562Y-48469700D01*
X119709100Y-48415162D01*
X119783600Y-48395200D01*
X121861510Y-48395200D01*
X121876981Y-48391055D01*
X121882505Y-48370437D01*
X121921068Y-48303642D01*
X121987863Y-48265077D01*
X122026428Y-48260000D01*
X124334499Y-48260000D01*
X124408999Y-48279962D01*
G37*
%TD.AperFunction*%
%TD*%
M02*
